<?xml version="1.0" encoding="utf-8"?>
<svg version="1.2" baseProfile="tiny"
	 id="Capa_1" inkscape:version="0.48.5 r10040" sodipodi:docname="image-not-available.svg" xmlns:inkscape="http://www.inkscape.org/namespaces/inkscape" xmlns:cc="http://creativecommons.org/ns#" xmlns:sodipodi="http://sodipodi.sourceforge.net/DTD/sodipodi-0.dtd" xmlns:svg="http://www.w3.org/2000/svg" xmlns:dc="http://purl.org/dc/elements/1.1/" xmlns:rdf="http://www.w3.org/1999/02/22-rdf-syntax-ns#"
	 xmlns="http://www.w3.org/2000/svg" xmlns:xlink="http://www.w3.org/1999/xlink" x="0px" y="0px" width="1000px" height="1000px"
	 viewBox="0 0 1000 1000" xml:space="preserve">
<sodipodi:namedview  id="namedview43" borderopacity="1" inkscape:zoom="0.43051865" guidetolerance="10" bordercolor="#666666" pagecolor="#ffffff" gridtolerance="10" showgrid="false" inkscape:cx="-12.775289" objecttolerance="10" inkscape:cy="274.08801" inkscape:window-maximized="1" inkscape:pageshadow="2" inkscape:window-height="1017" inkscape:current-layer="g3069" inkscape:window-y="-8" inkscape:window-width="1920" inkscape:window-x="-8" inkscape:pageopacity="0">
	</sodipodi:namedview>
<rect id="rect3053" x="0" fill="#ECECEC" width="999.999" height="1000"/>
<g id="g3044" transform="translate(6.9788232e-6,10.000016)">
	<g id="g3069" transform="translate(0,-39.687499)">
		<g id="g3078" transform="matrix(0.95345408,0,0,0.95345408,24.852121,29.124106)">
			<g id="g3062" transform="translate(-1.1978823e-5,0)">
				<path id="path7" inkscape:connector-curvature="0" fill="#CCCCCC" d="M623.703,342.58c-4.244-4.245-9.346-6.367-15.31-6.367
					h-216.79c-5.962,0-11.064,2.122-15.311,6.367c-4.246,4.246-6.368,9.348-6.368,15.31v164.76c0,5.963,2.121,11.066,6.368,15.311
					c4.247,4.245,9.349,6.369,15.311,6.369h216.793c5.961,0,11.064-2.123,15.309-6.369c4.245-4.244,6.37-9.347,6.37-15.311V357.89
					C630.075,351.928,627.951,346.826,623.703,342.58z M612.729,522.65c0,1.176-0.427,2.189-1.285,3.05
					c-0.858,0.854-1.875,1.282-3.05,1.282h-216.79c-1.174,0-2.19-0.428-3.048-1.282c-0.857-0.86-1.287-1.874-1.287-3.05V357.889
					c0-1.174,0.428-2.188,1.287-3.048c0.858-0.856,1.875-1.285,3.048-1.285h216.793c1.173,0,2.19,0.43,3.047,1.285
					c0.855,0.86,1.284,1.874,1.284,3.048V522.65l0,0H612.729z"/>
				<path id="path9" inkscape:connector-curvature="0" fill="#CCCCCC" d="M430.627,422.927c7.228,0,13.369-2.528,18.429-7.587
					c5.058-5.059,7.587-11.201,7.587-18.426c0-7.228-2.531-13.369-7.587-18.429c-5.06-5.057-11.202-7.587-18.429-7.587
					c-7.226,0-13.367,2.529-18.426,7.587c-5.058,5.059-7.587,11.201-7.587,18.429c0,7.225,2.528,13.368,7.587,18.426
					C417.259,420.398,423.401,422.927,430.627,422.927z"/>
				<polygon id="polygon11" fill="#CCCCCC" points="595.388,509.645 595.388,448.943 539.023,392.577 469.649,461.949 
					447.969,440.272 404.612,483.628 404.612,509.645 				"/>
			</g>
			<text transform="matrix(1.0488 0 0 1.0488 316.5001 633.1615)" fill="#CCCCCC" font-family="'OpenSans'" font-size="61.0211">IMAGEN NO</text>
			<text transform="matrix(1.0488 0 0 1.0488 314.9525 713.1626)" fill="#CCCCCC" font-family="'OpenSans'" font-size="61.0211">DISPONIBLE</text>
		</g>
	</g>
</g>
</svg>
