<?xml version="1.0" encoding="utf-8"?>
<!-- Generator: Adobe Illustrator 16.0.0, SVG Export Plug-In . SVG Version: 6.00 Build 0)  -->
<!DOCTYPE svg PUBLIC "-//W3C//DTD SVG 1.1//EN" "http://www.w3.org/Graphics/SVG/1.1/DTD/svg11.dtd">
<svg version="1.1" id="Layer_1" xmlns="http://www.w3.org/2000/svg" xmlns:xlink="http://www.w3.org/1999/xlink" x="0px" y="0px"
	 viewBox="-249.5 750.5 500 500" enable-background="new -249.5 750.5 500 500" xml:space="preserve">
<path fill="rgba(0,0,0,0)" id="rect01" d="M125.5,783.996L125.5,783.996c8.149,4.707,10.938,15.117,6.235,23.271l-48.149,83.389
	c-4.702,8.154-15.122,10.947-23.271,6.24l0,0c-8.149-4.697-10.942-15.127-6.235-23.271l48.149-83.398
	C106.931,782.082,117.351,779.289,125.5,783.996z">
<animate  from="rgba(0,0,0,1)" to="rgba(0,0,0,0)" dur="1200ms" begin="100ms" restart="always" fill="remove" additive="replace" calcMode="linear" attributeName="fill" repeatCount="indefinite" accumulate="none">
		</animate>
</path>
<path fill="rgba(0,0,0,0)" id="rect02" d="M217.004,875.5L217.004,875.5c4.707,8.145,1.914,18.574-6.235,23.271l-83.394,48.154
	c-8.149,4.697-18.569,1.914-23.276-6.24l0,0c-4.702-8.154-1.909-18.564,6.235-23.271l83.398-48.154
	C201.882,864.563,212.302,867.355,217.004,875.5z">
<animate  from="rgba(0,0,0,1)" to="rgba(0,0,0,0)" dur="1200ms" begin="200ms" restart="always" fill="remove" additive="replace" calcMode="linear" attributeName="fill" repeatCount="indefinite" accumulate="none">
		</animate>
</path>
<path fill="rgba(0,0,0,0)" id="rect03" d="M250.5,1000.5L250.5,1000.5c0,9.414-7.627,17.041-17.036,17.041h-96.299c-9.409,0-17.036-7.627-17.036-17.041
	l0,0c0-9.414,7.627-17.031,17.036-17.031h96.299C242.873,983.469,250.5,991.086,250.5,1000.5z">
<animate  from="rgba(0,0,0,1)" to="rgba(0,0,0,0)" dur="1200ms" begin="300ms" restart="always" fill="remove" additive="replace" calcMode="linear" attributeName="fill" repeatCount="indefinite" accumulate="none">
		</animate>
</path>
<path fill="rgba(0,0,0,0)" id="rect04" d="M217.004,1125.5L217.004,1125.5c-4.702,8.145-15.122,10.938-23.271,6.24l-83.398-48.154
	c-8.145-4.707-10.938-15.117-6.235-23.271l0,0c4.707-8.145,15.127-10.938,23.276-6.24l83.394,48.154
	C218.918,1106.926,221.711,1117.355,217.004,1125.5z">
<animate  from="rgba(0,0,0,1)" to="rgba(0,0,0,0)" dur="1200ms" begin="400ms" restart="always" fill="remove" additive="replace" calcMode="linear" attributeName="fill" repeatCount="indefinite" accumulate="none">
		</animate>
</path>
<path fill="rgba(0,0,0,0)" id="rect05" d="M125.5,1217.004L125.5,1217.004c-8.149,4.707-18.569,1.914-23.271-6.23l-48.149-83.398
	c-4.707-8.145-1.914-18.574,6.235-23.281l0,0c8.149-4.697,18.569-1.904,23.271,6.24l48.149,83.398
	C136.438,1201.887,133.65,1212.297,125.5,1217.004z">
<animate  from="rgba(0,0,0,1)" to="rgba(0,0,0,0)" dur="1200ms" begin="500ms" restart="always" fill="remove" additive="replace" calcMode="linear" attributeName="fill" repeatCount="indefinite" accumulate="none">
		</animate>
</path>
<path fill="rgba(0,0,0,0)" id="rect06" d="M0.495,1120.129L0.495,1120.129c9.414,0,17.041,7.627,17.041,17.041v96.299c0,9.404-7.632,17.031-17.041,17.031
	l0,0c-9.409,0-17.036-7.627-17.036-17.031v-96.299C-16.536,1127.756-8.909,1120.129,0.495,1120.129z">
<animate  from="rgba(0,0,0,1)" to="rgba(0,0,0,0)" dur="1200ms" begin="600ms" restart="always" fill="remove" additive="replace" calcMode="linear" attributeName="fill" repeatCount="indefinite" accumulate="none">
		</animate>
</path>
<path fill="rgba(0,0,0,0)" id="rect07" d="M-59.314,1104.104L-59.314,1104.104c8.149,4.697,10.938,15.127,6.235,23.271l-48.149,83.398
	c-4.702,8.145-15.122,10.938-23.271,6.23l0,0c-8.149-4.707-10.938-15.117-6.235-23.271l48.149-83.389
	C-77.884,1102.189-67.464,1099.396-59.314,1104.104z">
<animate  from="rgba(0,0,0,1)" to="rgba(0,0,0,0)" dur="1200ms" begin="700ms" restart="always" fill="remove" additive="replace" calcMode="linear" attributeName="fill" repeatCount="indefinite" accumulate="none">
		</animate>
</path>
<path fill="rgba(0,0,0,0)" id="rect08" d="M-103.103,1060.314L-103.103,1060.314c4.702,8.154,1.914,18.564-6.235,23.271l-83.398,48.145
	c-8.145,4.707-18.564,1.914-23.271-6.23l0,0c-4.702-8.145-1.914-18.574,6.235-23.271l83.398-48.154
	C-118.225,1049.367-107.81,1052.17-103.103,1060.314z">
<animate  from="rgba(0,0,0,1)" to="rgba(0,0,0,0)" dur="1200ms" begin="800ms" restart="always" fill="remove" additive="replace" calcMode="linear" attributeName="fill" repeatCount="indefinite" accumulate="none">
		</animate>
</path>
<path fill="rgba(0,0,0,0)" id="rect09" d="M-119.129,1000.5L-119.129,1000.5c0,9.414-7.632,17.041-17.036,17.041h-96.299
	c-9.409,0-17.036-7.627-17.036-17.041l0,0c0-9.414,7.627-17.031,17.036-17.031h96.299
	C-126.76,983.469-119.129,991.086-119.129,1000.5z">
<animate  from="rgba(0,0,0,1)" to="rgba(0,0,0,0)" dur="1200ms" begin="900ms" restart="always" fill="remove" additive="replace" calcMode="linear" attributeName="fill" repeatCount="indefinite" accumulate="none">
		</animate>
</path>
<path fill="rgba(0,0,0,0)" id="rect10" d="M-103.103,940.686L-103.103,940.686c-4.702,8.154-15.122,10.947-23.271,6.24l-83.398-48.154
	c-8.149-4.697-10.938-15.127-6.235-23.271l0,0c4.707-8.145,15.127-10.938,23.271-6.23l83.398,48.145
	C-101.189,922.121-98.396,932.531-103.103,940.686z">
<animate  from="rgba(0,0,0,1)" to="rgba(0,0,0,0)" dur="1200ms" begin="1000ms" restart="always" fill="remove" additive="replace" calcMode="linear" attributeName="fill" repeatCount="indefinite" accumulate="none">
		</animate>
</path>
<path fill="rgba(0,0,0,0)" id="rect11" d="M-59.314,896.896L-59.314,896.896c-8.149,4.707-18.569,1.914-23.271-6.24l-48.149-83.389
	c-4.702-8.154-1.914-18.564,6.235-23.271l0,0c8.149-4.707,18.569-1.914,23.271,6.23l48.149,83.398
	C-48.377,881.77-51.17,892.199-59.314,896.896z">
<animate  from="rgba(0,0,0,1)" to="rgba(0,0,0,0)" dur="1200ms" begin="1100ms" restart="always" fill="remove" additive="replace" calcMode="linear" attributeName="fill" repeatCount="indefinite" accumulate="none">
		</animate>
</path>
<path fill="rgba(0,0,0,0)" id="rect12" d="M0.495,750.5L0.495,750.5c9.414,0,17.041,7.627,17.041,17.031v96.309c0,9.404-7.632,17.031-17.041,17.031l0,0
	c-9.409,0-17.036-7.637-17.036-17.031v-96.309C-16.536,758.127-8.909,750.5,0.495,750.5z">
<animate  from="rgba(0,0,0,1)" to="rgba(0,0,0,0)" dur="1200ms" begin="1200ms" restart="always" fill="remove" additive="replace" calcMode="linear" attributeName="fill" repeatCount="indefinite" accumulate="none">
		</animate>
</path>
</svg>
