<svg xmlns="http://www.w3.org/2000/svg" version="1.2" x="0px" y="0px" width="1000" height="1000" viewBox="0 0 1000 1000">
    <path fill="#ECECEC" d="M0 0h1000v1000H0z"/>
    <path d="M619.524 326.07c-4.046-4.046-8.91-6.07-14.597-6.07h-206.7c-5.684 0-10.548 2.024-14.598 6.07-4.048 4.05-6.071 8.914-6.071 14.598V497.76c0 5.686 2.022 10.551 6.071 14.599 4.05 4.047 8.914 6.072 14.599 6.072H604.93c5.683 0 10.549-2.024 14.596-6.072 4.048-4.047 6.074-8.912 6.074-14.599V340.67c0-5.685-2.025-10.55-6.076-14.598zm-10.463 171.69c0 1.12-.407 2.087-1.225 2.907-.818.815-1.788 1.223-2.908 1.223h-206.7c-1.119 0-2.088-.408-2.906-1.223-.817-.82-1.227-1.786-1.227-2.908V340.667c0-1.119.408-2.086 1.227-2.906.818-.816 1.788-1.225 2.907-1.225H604.93c1.118 0 2.088.41 2.905 1.225.815.82 1.224 1.787 1.224 2.906V497.76h.001z" fill="#ccc"/>
    <path d="M435.435 402.678c6.892 0 12.747-2.41 17.571-7.234 4.823-4.823 7.234-10.68 7.234-17.568 0-6.892-2.413-12.747-7.234-17.571-4.824-4.822-10.68-7.234-17.57-7.234-6.89 0-12.746 2.411-17.57 7.234-4.822 4.823-7.233 10.68-7.233 17.57 0 6.89 2.41 12.747 7.234 17.57 4.822 4.822 10.679 7.233 17.568 7.233zm157.092 82.682v-57.877l-53.741-53.742-66.145 66.143-20.671-20.668-41.339 41.338v24.806z" fill="#ccc"/>
    <path d="M329.096 558.643h6.019v44.484h-6.019zm17.996 0h8.969l11.352 30.272 11.411-30.272h8.968v44.484h-5.87v-39.061l-11.47 30.51h-6.049l-11.47-30.51v39.061h-5.84zm67.546 5.929l-8.164 22.138h16.357zm-3.397-5.929h6.823l16.953 44.484h-6.257l-4.052-11.411h-20.052l-4.052 11.411h-6.346zm59.5 38.137v-11.947h-9.832v-4.946H476.7v19.099q-3.486 2.473-7.687 3.754-4.2 1.251-8.968 1.251-10.428 0-16.328-6.078-5.87-6.108-5.87-16.983 0-10.905 5.87-16.983 5.9-6.108 16.328-6.108 4.35 0 8.253 1.072 3.933 1.073 7.24 3.159v6.406q-3.337-2.831-7.09-4.261-3.755-1.43-7.896-1.43-8.164 0-12.276 4.558-4.082 4.559-4.082 13.587 0 8.998 4.082 13.557 4.112 4.558 12.276 4.558 3.188 0 5.69-.536 2.503-.566 4.5-1.728zm16.983-38.137h28.127v5.065h-22.108v13.17h21.184v5.065h-21.184v16.119h22.644v5.065h-28.663zm58.041 0h8.104l19.725 37.214v-37.214h5.84v44.484h-8.105l-19.724-37.214v37.214h-5.84zm63.702 4.082q-6.555 0-10.429 4.886-3.843 4.887-3.843 13.319 0 8.402 3.843 13.288 3.874 4.887 10.429 4.887t10.368-4.887q3.844-4.886 3.844-13.288 0-8.432-3.844-13.319-3.813-4.886-10.368-4.886zm0-4.886q9.355 0 14.957 6.286 5.601 6.257 5.601 16.805 0 10.517-5.601 16.804-5.602 6.257-14.957 6.257-9.386 0-15.017-6.257-5.601-6.257-5.601-16.804 0-10.548 5.601-16.805 5.631-6.286 15.017-6.286zm23.806.804h37.63v5.065h-15.79v39.419h-6.049v-39.419h-15.791zM359.204 640.85l-8.164 22.137h16.358zm-3.397-5.93h6.823l16.954 44.484h-6.257l-4.052-11.411h-20.052l-4.052 11.411h-6.347zm37.78 44.484l-16.983-44.483h6.287l14.093 37.452 14.123-37.452h6.257l-16.954 44.483zm41.177-38.554l-8.164 22.137h16.358zm-3.397-5.93h6.823l16.954 44.484h-6.257l-4.052-11.411h-20.052l-4.052 11.411h-6.347zm30.243 0h6.018v44.484h-6.019zm17.995 0h6.019v39.42h21.66v5.064h-27.679zm50.265 5.93l-8.164 22.137h16.357zm-3.397-5.93h6.823l16.953 44.484h-6.257l-4.052-11.411h-20.052l-4.052 11.411h-6.346zm36.26 23.24v16.298h9.654q4.856 0 7.18-1.996 2.354-2.026 2.354-6.167 0-4.172-2.354-6.138-2.324-1.996-7.18-1.996zm0-18.293v13.407h8.909q4.41 0 6.555-1.638 2.175-1.669 2.175-5.066 0-3.366-2.175-5.035-2.145-1.668-6.555-1.668zm-6.018-4.946h15.374q6.883 0 10.607 2.86 3.724 2.86 3.724 8.134 0 4.082-1.907 6.495-1.907 2.414-5.601 3.01 4.44.953 6.883 3.992 2.473 3.01 2.473 7.538 0 5.96-4.053 9.207-4.052 3.247-11.53 3.247h-15.97zm41.832-.001h6.018v39.42h21.661v5.064h-27.68zm33.966 0h28.126v5.066h-22.107v13.17h21.184v5.064h-21.184v16.12h22.644v5.064h-28.663z" fill="#ccc"/>
</svg>
