<svg xmlns="http://www.w3.org/2000/svg" version="1.2" x="0px" y="0px" width="1000" height="1000" viewBox="0 0 1000 1000">
    <path fill="#ECECEC" d="M0 0h1000v1000H0z"/>
    <path d="M619.524 326.07c-4.046-4.046-8.91-6.07-14.597-6.07h-206.7c-5.684 0-10.548 2.024-14.598 6.07-4.048 4.05-6.071 8.914-6.071 14.598V497.76c0 5.686 2.022 10.551 6.071 14.599 4.05 4.047 8.914 6.072 14.599 6.072H604.93c5.683 0 10.549-2.024 14.596-6.072 4.048-4.047 6.074-8.912 6.074-14.599V340.67c0-5.685-2.025-10.55-6.076-14.598zm-10.463 171.69c0 1.12-.407 2.087-1.225 2.907-.818.815-1.788 1.223-2.908 1.223h-206.7c-1.119 0-2.088-.408-2.906-1.223-.817-.82-1.227-1.786-1.227-2.908V340.667c0-1.119.408-2.086 1.227-2.906.818-.816 1.788-1.225 2.907-1.225H604.93c1.118 0 2.088.41 2.905 1.225.815.82 1.224 1.787 1.224 2.906V497.76z" fill="#ccc"/>
    <path d="M435.435 402.678c6.892 0 12.747-2.41 17.571-7.234 4.823-4.823 7.234-10.68 7.234-17.568 0-6.892-2.413-12.747-7.234-17.571-4.824-4.822-10.68-7.234-17.57-7.234-6.89 0-12.746 2.411-17.57 7.234-4.822 4.823-7.233 10.68-7.233 17.57 0 6.89 2.41 12.747 7.234 17.57 4.822 4.822 10.679 7.233 17.568 7.233zm16.535 16.538l-41.339 41.338v24.806h181.896v-57.877l-53.741-53.742-66.145 66.143z" fill="#ccc"/>
    <path d="M336.169 558.643h6.019v44.484h-6.019zm17.996 0h8.968l11.352 30.272 11.412-30.272h8.968v44.484h-5.87v-39.061l-11.47 30.51h-6.049l-11.471-30.51v39.061h-5.84zm67.545 5.929l-8.164 22.138h16.358zm-3.396-5.929h6.823l16.953 44.484h-6.257l-4.052-11.411h-20.052l-4.052 11.411h-6.346zm59.5 38.137v-11.947h-9.832v-4.946h15.791v19.099q-3.486 2.473-7.687 3.754-4.201 1.251-8.968 1.251-10.428 0-16.328-6.078-5.87-6.108-5.87-16.983 0-10.905 5.87-16.983 5.9-6.108 16.328-6.108 4.35 0 8.253 1.072 3.933 1.073 7.24 3.159v6.406q-3.337-2.831-7.091-4.261-3.754-1.43-7.896-1.43-8.164 0-12.275 4.558-4.082 4.559-4.082 13.587 0 8.998 4.082 13.556 4.111 4.56 12.275 4.56 3.188 0 5.691-.537 2.503-.566 4.5-1.728zm16.983-38.137h28.127v5.065h-22.108v13.17H522v5.065h-21.184v16.119h22.644v5.065h-28.663zm38.615 0h8.104l19.724 37.214v-37.214h5.84v44.484h-8.104l-19.725-37.214v37.214h-5.84zm65.072 0h8.104l19.724 37.214v-37.214h5.84v44.484h-8.104l-19.725-37.214v37.214h-5.84zm63.701 4.082q-6.555 0-10.428 4.886-3.844 4.887-3.844 13.319 0 8.402 3.844 13.288 3.873 4.887 10.428 4.887 6.555 0 10.369-4.887 3.843-4.886 3.843-13.288 0-8.432-3.843-13.319-3.814-4.886-10.369-4.886zm0-4.886q9.356 0 14.957 6.286 5.602 6.257 5.602 16.805 0 10.517-5.602 16.804-5.601 6.257-14.957 6.257-9.385 0-15.016-6.257-5.602-6.257-5.602-16.804 0-10.548 5.602-16.805 5.63-6.286 15.016-6.286zM337.152 639.867v34.591h7.27q9.207 0 13.468-4.17 4.29-4.172 4.29-13.17 0-8.939-4.29-13.08-4.261-4.171-13.468-4.171zm-6.018-4.946h12.365q12.93 0 18.979 5.392 6.048 5.364 6.048 16.805 0 11.5-6.078 16.894-6.078 5.392-18.95 5.392h-12.364zm46.956-.001h6.02v44.484h-6.02zm44.663 1.46v5.87q-3.426-1.639-6.465-2.443-3.04-.805-5.87-.805-4.916 0-7.598 1.907-2.651 1.907-2.651 5.423 0 2.95 1.757 4.47 1.788 1.489 6.734 2.413l3.635.745q6.734 1.28 9.922 4.528 3.218 3.218 3.218 8.64 0 6.466-4.35 9.803-4.32 3.337-12.693 3.337-3.158 0-6.734-.715-3.545-.715-7.36-2.115v-6.197q3.666 2.055 7.182 3.098 3.515 1.043 6.912 1.043 5.154 0 7.955-2.026 2.8-2.026 2.8-5.78 0-3.278-2.025-5.125-1.996-1.847-6.585-2.77l-3.665-.716q-6.733-1.34-9.743-4.201-3.009-2.86-3.009-7.955 0-5.9 4.142-9.296 4.17-3.397 11.47-3.397 3.13 0 6.377.566t6.644 1.699zm18.086 3.487v16.715h7.568q4.2 0 6.495-2.176 2.294-2.175 2.294-6.197 0-3.992-2.294-6.167t-6.495-2.175zm-6.019-4.946h13.587q7.478 0 11.292 3.396 3.843 3.367 3.843 9.892 0 6.585-3.843 9.952-3.814 3.366-11.292 3.366h-7.568v17.877h-6.019zm54.882 4.081q-6.555 0-10.428 4.887-3.843 4.886-3.843 13.318 0 8.402 3.843 13.289 3.873 4.886 10.428 4.886 6.555 0 10.369-4.886 3.844-4.887 3.844-13.289 0-8.432-3.844-13.318-3.814-4.887-10.369-4.887zm0-4.886q9.356 0 14.957 6.287 5.602 6.257 5.602 16.804 0 10.518-5.602 16.805-5.601 6.256-14.957 6.256-9.385 0-15.016-6.256-5.602-6.257-5.602-16.805 0-10.547 5.602-16.804 5.63-6.287 15.016-6.287zm29.974.804h8.104l19.725 37.214v-37.213h5.84v44.483h-8.105l-19.724-37.213v37.213h-5.84zm45.646 0h6.018v44.484h-6.018zm24.015 23.24v16.298h9.653q4.857 0 7.18-1.996 2.355-2.026 2.355-6.167 0-4.172-2.354-6.138-2.324-1.996-7.18-1.996zm0-18.293v13.407h8.908q4.41 0 6.555-1.638 2.175-1.669 2.175-5.066 0-3.366-2.175-5.035-2.145-1.668-6.555-1.668zm-6.019-4.946h15.374q6.883 0 10.607 2.86 3.725 2.86 3.725 8.134 0 4.082-1.907 6.495-1.907 2.414-5.602 3.01 4.44.953 6.883 3.992 2.473 3.01 2.473 7.538 0 5.96-4.052 9.207-4.052 3.247-11.53 3.247h-15.971zm41.832-.001h6.019v39.42h21.66v5.064H625.15zm33.966 0h28.127v5.066h-22.108v13.17h21.184v5.064h-21.184v16.12h22.644v5.064h-28.663z" fill="#ccc"/>
</svg>
