<?xml version="1.0" encoding="utf-8"?>
<!-- Generator: Adobe Illustrator 16.0.0, SVG Export Plug-In . SVG Version: 6.00 Build 0)  -->
<!DOCTYPE svg PUBLIC "-//W3C//DTD SVG 1.1//EN" "http://www.w3.org/Graphics/SVG/1.1/DTD/svg11.dtd">
<svg version="1.1" id="Layer_1" xmlns="http://www.w3.org/2000/svg" xmlns:xlink="http://www.w3.org/1999/xlink" x="0px" y="0px"
	 width="12px" height="14px" viewBox="0 0 12 14" enable-background="new 0 0 12 14" xml:space="preserve">
<path fill="#666666" d="M8,11.7C7.8,10.4,7.4,9.1,6.9,7.8l0,0l0,0C6.8,7.9,6.7,7.9,6.5,8S6.1,8.1,5.7,8.3C5.3,8.5,5,8.7,4.6,8.9
	C4.4,9.2,4,9.5,3.7,9.9C3.3,10.3,3.1,10.7,2.9,11.1L2.8,11c0.9,0.7,2,1.1,3.2,1.1C6.7,12.1,7.4,12,8,11.7L8,11.7z M6.6,7
	C6.4,6.7,6.3,6.4,6.1,6.1C4.5,6.6,2.7,6.8,0.8,6.8C0.9,6.9,0.9,6.9,0.9,7c0,0.6,0.1,1.3,0.3,1.8C1.4,9.4,1.8,9.9,2.2,10.4
	c0.3-0.5,0.6-0.9,1-1.301C3.6,8.7,4,8.4,4.3,8.1C4.7,7.9,5,7.6,5.3,7.5c0.3-0.2,0.6-0.3,0.8-0.4L6.4,7h0.1C6.5,7,6.5,7,6.6,7L6.6,7z
	 M5.7,5.3c-0.6-1.1-1.3-2.1-1.9-3C3.1,2.7,2.5,3.2,2,3.8C1.5,4.4,1.2,5.1,1,5.9C2.6,5.9,4.1,5.7,5.7,5.3z M11.1,7.8
	C10,7.5,8.9,7.4,7.9,7.6c0.5,1.2,0.8,2.5,1,3.7C9.5,10.9,10,10.4,10.3,9.8C10.7,9.2,10.9,8.5,11.1,7.8z M4.8,2L4.8,2L4.8,2z
	 M9.4,3.2C8.4,2.3,7.3,1.9,6,1.9c-0.4,0-0.8,0-1.2,0.1c0.7,0.9,1.3,1.9,1.9,3c0.399-0.1,0.7-0.3,1-0.5S8.3,4.2,8.5,4
	C8.7,3.9,8.9,3.7,9,3.6s0.3-0.3,0.3-0.3L9.4,3.2z M11.1,6.9c0-1.2-0.399-2.3-1.199-3.2L10,3.8c-0.1,0-0.1,0.1-0.2,0.1
	c0,0.1-0.2,0.2-0.3,0.4C9.3,4.5,9.1,4.6,8.9,4.8C8.7,5,8.5,5.1,8.1,5.3C7.7,5.5,7.5,5.6,7.1,5.8C7.2,6.1,7.3,6.3,7.4,6.5
	c0,0,0,0.1,0.1,0.1s0,0.1,0.1,0.1c0.2,0,0.4,0,0.601-0.1c0.2,0,0.399,0,0.6,0s0.4,0,0.5,0c0.2,0,0.3,0,0.5,0s0.3,0,0.4,0
	c0.1,0,0.3,0,0.399,0.1c0.101,0,0.2,0,0.301,0c0.1,0,0.1,0,0.199,0V6.9z M12,7c0,1.1-0.3,2.1-0.8,3S9.9,11.6,9,12.2
	C8.1,12.7,7.1,13,6,13c-1.1,0-2.1-0.3-3-0.8S1.4,10.9,0.8,10C0.3,9.1,0,8.1,0,7c0-1.1,0.3-2.1,0.8-3S2.1,2.3,3,1.8S4.9,1,6,1
	c1.1,0,2.1,0.3,3,0.8s1.6,1.3,2.2,2.2C11.7,4.9,12,5.9,12,7z"/>
</svg>
