<?xml version="1.0" encoding="utf-8"?>
<!-- Generator: Adobe Illustrator 16.0.0, SVG Export Plug-In . SVG Version: 6.00 Build 0)  -->
<!DOCTYPE svg PUBLIC "-//W3C//DTD SVG 1.1//EN" "http://www.w3.org/Graphics/SVG/1.1/DTD/svg11.dtd">
<svg version="1.1" id="Layer_1" xmlns="http://www.w3.org/2000/svg" xmlns:xlink="http://www.w3.org/1999/xlink" x="0px" y="0px"
	 width="24px" height="28px" viewBox="0 0 24 28" enable-background="new 0 0 24 28" xml:space="preserve">
<path fill="#666666" d="M16,23.4c-0.4-2.601-1.2-5.2-2.2-7.801l0,0l0,0C13.6,15.8,13.4,15.8,13,16s-0.8,0.2-1.6,0.6
	C10.6,17,10,17.4,9.2,17.8C8.8,18.4,8,19,7.4,19.8C6.6,20.6,6.2,21.4,5.8,22.2L5.6,22c1.801,1.4,4,2.2,6.4,2.2
	C13.4,24.2,14.8,24,16,23.4L16,23.4z M13.2,14c-0.4-0.6-0.601-1.2-1-1.8C9,13.2,5.4,13.6,1.6,13.6c0.2,0.2,0.2,0.2,0.2,0.4
	c0,1.2,0.2,2.6,0.601,3.6c0.399,1.2,1.199,2.2,2,3.2c0.6-1,1.199-1.8,2-2.602C7.2,17.4,8,16.8,8.6,16.2c0.801-0.4,1.4-1,2-1.2
	c0.601-0.4,1.2-0.6,1.601-0.8l0.6-0.2H13C13,14,13,14,13.2,14L13.2,14z M11.4,10.6C10.2,8.4,8.8,6.4,7.6,4.6C6.2,5.4,5,6.4,4,7.6
	C3,8.8,2.4,10.2,2,11.8C5.2,11.8,8.2,11.4,11.4,10.6z M22.2,15.6C20,15,17.8,14.8,15.8,15.2c1,2.399,1.601,5,2,7.399
	c1.2-0.8,2.2-1.8,2.8-3C21.4,18.4,21.8,17,22.2,15.6z M9.6,4L9.6,4L9.6,4z M18.8,6.4C16.8,4.6,14.6,3.8,12,3.8c-0.8,0-1.6,0-2.4,0.2
	C11,5.8,12.2,7.8,13.4,10c0.798-0.2,1.399-0.6,2-1C16,8.6,16.6,8.4,17,8c0.4-0.2,0.8-0.6,1-0.8S18.6,6.6,18.6,6.6L18.8,6.4z
	 M22.2,13.8c0-2.399-0.798-4.6-2.398-6.399L20,7.6c-0.2,0-0.2,0.2-0.4,0.2C19.6,8,19.2,8.2,19,8.6c-0.4,0.4-0.8,0.601-1.2,1
	C17.4,10,17,10.2,16.2,10.6c-0.8,0.4-1.2,0.601-2,1c0.2,0.601,0.399,1,0.6,1.4c0,0,0,0.2,0.2,0.2s0,0.2,0.2,0.2
	c0.399,0,0.8,0,1.202-0.2c0.399,0,0.798,0,1.199,0c0.402,0,0.801,0,1,0c0.4,0,0.601,0,1,0c0.4,0,0.601,0,0.801,0
	c0.199,0,0.6,0,0.798,0.2c0.202,0,0.399,0,0.602,0c0.2,0,0.2,0,0.398,0V13.8z M24,14c0,2.2-0.6,4.2-1.6,6S19.8,23.2,18,24.4
	c-1.8,1-3.8,1.6-6,1.6s-4.2-0.6-6-1.6S2.8,21.8,1.6,20c-1-1.8-1.6-3.8-1.6-6s0.6-4.2,1.6-6S4.2,4.6,6,3.6S9.8,2,12,2s4.2,0.6,6,1.6
	S21.2,6.2,22.4,8C23.4,9.8,24,11.8,24,14z"/>
</svg>
