<?xml version="1.0" encoding="utf-8"?>
<!-- Generator: Adobe Illustrator 16.0.0, SVG Export Plug-In . SVG Version: 6.00 Build 0)  -->
<!DOCTYPE svg PUBLIC "-//W3C//DTD SVG 1.1//EN" "http://www.w3.org/Graphics/SVG/1.1/DTD/svg11.dtd">
<svg version="1.1" id="Layer_1" xmlns="http://www.w3.org/2000/svg" xmlns:xlink="http://www.w3.org/1999/xlink" x="0px" y="0px"
	 width="12px" height="14px" viewBox="0 0 12 14" enable-background="new 0 0 12 14" xml:space="preserve">
<path fill="#666666" d="M9.75,1c0.62,0,1.15,0.22,1.59,0.66C11.779,2.1,12,2.63,12,3.25v7.5c0,0.62-0.221,1.15-0.66,1.59
	C10.9,12.78,10.37,13,9.75,13h-7.5c-0.62,0-1.15-0.22-1.59-0.66C0.22,11.9,0,11.37,0,10.75v-7.5C0,2.63,0.22,2.1,0.66,1.66
	C1.1,1.22,1.63,1,2.25,1H9.75z M10,9.25V5.844c-0.161,0.182-0.328,0.326-0.5,0.43C9.322,6.389,8.978,6.61,8.465,6.938
	S7.558,7.523,7.281,7.711C6.771,8.07,6.343,8.25,6,8.25l0,0l0,0c-0.344,0-0.771-0.18-1.281-0.539
	c-0.24-0.166-0.608-0.408-1.105-0.723C3.117,6.673,2.746,6.432,2.501,6.265C2.438,6.224,2.353,6.153,2.243,6.054
	c-0.109-0.1-0.19-0.17-0.242-0.211v3.406c0,0.208,0.073,0.385,0.219,0.531c0.146,0.146,0.323,0.219,0.531,0.219h6.5
	c0.208,0,0.386-0.073,0.531-0.219C9.928,9.634,10.001,9.457,10,9.25L10,9.25z M10,4.773c0-0.213-0.072-0.396-0.215-0.547
	C9.642,4.075,9.463,3.999,9.25,3.999h-6.5c-0.208,0-0.385,0.073-0.531,0.219C2.073,4.364,2,4.541,2,4.749
	c0,0.192,0.079,0.392,0.238,0.598c0.159,0.206,0.334,0.374,0.527,0.504C3.01,6.018,3.368,6.25,3.839,6.546
	c0.472,0.297,0.809,0.513,1.012,0.648c0.015,0.011,0.06,0.041,0.133,0.09S5.112,7.37,5.148,7.393S5.239,7.45,5.312,7.495
	c0.073,0.044,0.135,0.079,0.184,0.103C5.545,7.62,5.602,7.645,5.664,7.671S5.785,7.717,5.84,7.73C5.895,7.743,5.948,7.75,6,7.75
	s0.105-0.007,0.16-0.02c0.055-0.014,0.113-0.033,0.176-0.06S6.455,7.62,6.504,7.598c0.049-0.023,0.111-0.059,0.184-0.103
	C6.762,7.45,6.816,7.417,6.852,7.393c0.037-0.023,0.092-0.06,0.164-0.109c0.074-0.049,0.118-0.08,0.133-0.09l2.086-1.359
	c0.183-0.12,0.355-0.283,0.521-0.488C9.92,5.142,10.002,4.95,10,4.773L10,4.773z"/>
</svg>
