<?xml version="1.0" encoding="utf-8"?>
<!-- Generator: Adobe Illustrator 16.0.0, SVG Export Plug-In . SVG Version: 6.00 Build 0)  -->
<!DOCTYPE svg PUBLIC "-//W3C//DTD SVG 1.1//EN" "http://www.w3.org/Graphics/SVG/1.1/DTD/svg11.dtd">
<svg version="1.1" id="Layer_1" xmlns="http://www.w3.org/2000/svg" xmlns:xlink="http://www.w3.org/1999/xlink" x="0px" y="0px"
	 width="24px" height="28px" viewBox="0 0 24 28" enable-background="new 0 0 24 28" xml:space="preserve">
<path fill="#666666" d="M19.5,2c1.24,0,2.3,0.44,3.18,1.32C23.559,4.2,24,5.26,24,6.5v15c0,1.24-0.441,2.3-1.32,3.18
	C21.8,25.56,20.74,26,19.5,26h-15c-1.24,0-2.3-0.44-3.18-1.32C0.439,23.8,0,22.74,0,21.5v-15c0-1.24,0.439-2.3,1.32-3.18
	C2.2,2.44,3.26,2,4.5,2H19.5z M20,18.5v-6.812c-0.322,0.363-0.656,0.651-1,0.859c-0.355,0.23-1.044,0.672-2.07,1.328
	c-1.025,0.656-1.813,1.17-2.367,1.546C13.542,16.14,12.686,16.5,12,16.5l0,0l0,0c-0.688,0-1.542-0.36-2.563-1.078
	c-0.479-0.332-1.216-0.815-2.209-1.446c-0.994-0.63-1.736-1.111-2.227-1.445c-0.126-0.082-0.296-0.225-0.516-0.422
	c-0.219-0.2-0.381-0.341-0.484-0.423v6.813c0,0.416,0.146,0.77,0.438,1.062c0.293,0.292,0.646,0.438,1.063,0.438h13
	c0.416,0,0.771-0.146,1.063-0.438S20.002,18.914,20,18.5L20,18.5z M20,9.546c0-0.426-0.145-0.792-0.43-1.094
	c-0.286-0.302-0.645-0.454-1.07-0.454h-13c-0.416,0-0.77,0.146-1.063,0.438C4.146,8.728,4,9.082,4,9.498
	c0,0.384,0.158,0.784,0.477,1.196c0.317,0.412,0.668,0.748,1.054,1.008c0.489,0.334,1.206,0.798,2.147,1.39
	c0.944,0.594,1.618,1.026,2.024,1.296c0.03,0.022,0.12,0.082,0.266,0.181c0.146,0.098,0.257,0.172,0.328,0.218
	c0.072,0.046,0.183,0.114,0.328,0.204c0.146,0.088,0.271,0.158,0.368,0.206c0.098,0.044,0.212,0.094,0.336,0.146
	s0.242,0.092,0.352,0.118c0.11,0.026,0.217,0.04,0.32,0.04s0.21-0.014,0.32-0.04c0.109-0.028,0.226-0.066,0.352-0.12
	s0.238-0.1,0.336-0.144c0.098-0.046,0.223-0.118,0.368-0.206c0.147-0.09,0.256-0.156,0.328-0.204
	c0.074-0.046,0.184-0.12,0.328-0.218c0.147-0.099,0.235-0.16,0.266-0.181l4.172-2.718c0.366-0.24,0.71-0.565,1.042-0.976
	C19.84,10.284,20.004,9.9,20,9.546L20,9.546z"/>
</svg>
