<?xml version="1.0" encoding="utf-8"?>
<!-- Generator: Adobe Illustrator 16.0.0, SVG Export Plug-In . SVG Version: 6.00 Build 0)  -->
<!DOCTYPE svg PUBLIC "-//W3C//DTD SVG 1.1//EN" "http://www.w3.org/Graphics/SVG/1.1/DTD/svg11.dtd">
<svg version="1.1" id="Layer_1" xmlns="http://www.w3.org/2000/svg" xmlns:xlink="http://www.w3.org/1999/xlink" x="0px" y="0px"
	 width="12px" height="14px" viewBox="0 0 12 14" enable-background="new 0 0 12 14" xml:space="preserve">
<path fill="#666666" d="M9.75,1c0.62,0,1.15,0.22,1.59,0.66C11.779,2.1,12,2.63,12,3.25v7.5c0,0.62-0.221,1.15-0.66,1.59
	C10.9,12.78,10.37,13,9.75,13H8.281V8.352h1.555L10.07,6.54H8.281V5.384c0-0.292,0.061-0.51,0.184-0.656S8.826,4.51,9.18,4.509
	l0.953-0.008V2.884c-0.328-0.046-0.791-0.07-1.391-0.07c-0.708,0-1.274,0.208-1.699,0.625S6.406,4.444,6.406,5.205v1.336H4.843
	v1.813h1.563v4.647H2.25c-0.62,0-1.15-0.22-1.59-0.66S0,11.371,0,10.751v-7.5c0-0.62,0.22-1.15,0.66-1.59s0.97-0.66,1.59-0.66
	L9.75,1L9.75,1z"/>
</svg>
