<?xml version="1.0" encoding="utf-8"?>
<!-- Generator: Adobe Illustrator 16.0.0, SVG Export Plug-In . SVG Version: 6.00 Build 0)  -->
<!DOCTYPE svg PUBLIC "-//W3C//DTD SVG 1.1//EN" "http://www.w3.org/Graphics/SVG/1.1/DTD/svg11.dtd">
<svg version="1.1" id="Layer_1" xmlns="http://www.w3.org/2000/svg" xmlns:xlink="http://www.w3.org/1999/xlink" x="0px" y="0px"
	 width="24px" height="28px" viewBox="0 0 24 28" enable-background="new 0 0 24 28" xml:space="preserve">
<path fill="#666666" d="M19.5,1.999c1.24,0,2.3,0.44,3.18,1.32C23.559,4.199,24,5.258,24,6.499v15c0,1.241-0.441,2.3-1.32,3.181
	c-0.88,0.879-1.939,1.32-3.18,1.32h-2.938v-9.296h3.109l0.468-3.625h-3.577v-2.313c0-0.584,0.121-1.02,0.367-1.312
	s0.723-0.436,1.431-0.438L20.266,9V5.766c-0.655-0.092-1.582-0.14-2.781-0.14c-1.416,0-2.549,0.416-3.398,1.25
	s-1.273,2.01-1.273,3.532v2.672H9.686v3.626h3.127v9.294H4.5c-1.24,0-2.3-0.441-3.18-1.32C0.439,23.8,0,22.741,0,21.501v-15
	c0-1.24,0.439-2.3,1.32-3.18C2.2,2.441,3.26,2,4.5,2L19.5,1.999L19.5,1.999z"/>
</svg>
