<?xml version="1.0" encoding="utf-8"?>
<!-- Generator: Adobe Illustrator 16.0.0, SVG Export Plug-In . SVG Version: 6.00 Build 0)  -->
<!DOCTYPE svg PUBLIC "-//W3C//DTD SVG 1.1//EN" "http://www.w3.org/Graphics/SVG/1.1/DTD/svg11.dtd">
<svg version="1.1" id="Layer_1" xmlns="http://www.w3.org/2000/svg" xmlns:xlink="http://www.w3.org/1999/xlink" x="0px" y="0px"
	 width="12px" height="14px" viewBox="0 0 12 14" enable-background="new 0 0 12 14" xml:space="preserve">
<path fill="#666666" d="M7.164,7.07c0-0.135-0.016-0.302-0.047-0.5H4.289v1.032h1.695C5.969,7.726,5.926,7.855,5.855,7.992
	C5.784,8.128,5.687,8.266,5.562,8.406c-0.125,0.14-0.298,0.256-0.52,0.348S4.569,8.892,4.288,8.891c-0.516,0-0.956-0.185-1.32-0.555
	C2.604,7.966,2.421,7.521,2.421,7s0.183-0.966,0.547-1.336c0.365-0.37,0.805-0.555,1.32-0.555c0.479,0,0.877,0.154,1.195,0.461
	l0.813-0.789C5.733,4.26,5.064,4,4.288,4C3.455,4,2.746,4.293,2.163,4.879C1.58,5.465,1.288,6.172,1.288,7S1.58,8.535,2.163,9.121
	C2.746,9.707,3.455,10,4.288,10c0.859,0,1.553-0.273,2.082-0.82C6.898,8.633,7.163,7.93,7.164,7.07L7.164,7.07z M9.859,7.43h0.852
	V6.571H9.859V5.712H9v0.859H8.141V7.43H9v0.859h0.859V7.43z M12,3.25v7.5c0,0.62-0.221,1.15-0.66,1.59C10.9,12.78,10.37,13,9.75,13
	h-7.5c-0.62,0-1.15-0.22-1.59-0.66C0.22,11.9,0,11.37,0,10.75v-7.5C0,2.63,0.22,2.1,0.66,1.66C1.1,1.22,1.63,1,2.25,1h7.5
	c0.62,0,1.15,0.22,1.59,0.66C11.779,2.1,12,2.63,12,3.25z"/>
</svg>
