<?xml version="1.0" encoding="utf-8"?>
<!-- Generator: Adobe Illustrator 16.0.0, SVG Export Plug-In . SVG Version: 6.00 Build 0)  -->
<!DOCTYPE svg PUBLIC "-//W3C//DTD SVG 1.1//EN" "http://www.w3.org/Graphics/SVG/1.1/DTD/svg11.dtd">
<svg version="1.1" id="Layer_1" xmlns="http://www.w3.org/2000/svg" xmlns:xlink="http://www.w3.org/1999/xlink" x="0px" y="0px"
	 width="24px" height="28px" viewBox="0 0 24 28" enable-background="new 0 0 24 28" xml:space="preserve">
<path fill="#666666" d="M14.328,14.139c0-0.27-0.033-0.603-0.094-1H8.578v2.063h3.389c-0.029,0.248-0.115,0.506-0.258,0.781
	c-0.141,0.271-0.336,0.547-0.586,0.826c-0.25,0.281-0.596,0.514-1.04,0.697c-0.444,0.184-0.946,0.275-1.508,0.273
	c-1.032,0-1.912-0.369-2.641-1.109C5.208,15.932,4.841,15.041,4.841,14c0-1.042,0.366-1.932,1.094-2.672
	c0.73-0.74,1.61-1.11,2.641-1.11c0.958,0,1.754,0.309,2.389,0.922l1.627-1.578C11.465,8.521,10.127,8,8.576,8
	C6.91,8,5.492,8.586,4.326,9.758S2.576,12.344,2.576,14c0,1.656,0.584,3.07,1.75,4.242S6.91,20,8.576,20
	c1.717,0,3.106-0.547,4.165-1.641C13.795,17.266,14.326,15.859,14.328,14.139L14.328,14.139z M19.717,14.859h1.705v-1.718h-1.705
	v-1.718H18v1.718h-1.719v1.718H18v1.719h1.717V14.859z M24,6.5v15c0,1.24-0.441,2.299-1.32,3.18C21.799,25.559,20.74,26,19.5,26h-15
	c-1.24,0-2.3-0.441-3.18-1.32C0.439,23.799,0,22.74,0,21.5v-15c0-1.24,0.439-2.3,1.32-3.18C2.2,2.44,3.259,2,4.5,2h15
	c1.24,0,2.299,0.44,3.18,1.32C23.559,4.2,24,5.26,24,6.5z"/>
</svg>
