<?xml version="1.0" encoding="utf-8"?>
<!-- Generator: Adobe Illustrator 16.0.0, SVG Export Plug-In . SVG Version: 6.00 Build 0)  -->
<!DOCTYPE svg PUBLIC "-//W3C//DTD SVG 1.1//EN" "http://www.w3.org/Graphics/SVG/1.1/DTD/svg11.dtd">
<svg version="1.1" id="Layer_1" xmlns="http://www.w3.org/2000/svg" xmlns:xlink="http://www.w3.org/1999/xlink" x="0px" y="0px"
	 width="24px" height="28px" viewBox="0 0 24 28" enable-background="new 0 0 24 28" xml:space="preserve">
<path fill="#666666" d="M16.002,13.999c0-1.104-0.391-2.045-1.172-2.827C14.047,10.389,13.107,10,12.002,10
	c-1.104,0-2.045,0.39-2.828,1.172c-0.782,0.782-1.172,1.723-1.172,2.827c0,1.105,0.39,2.045,1.172,2.828
	c0.782,0.781,1.724,1.172,2.828,1.172c1.105,0,2.045-0.391,2.828-1.172C15.611,16.044,16.002,15.104,16.002,13.999z M18.157,13.999
	c0,1.708-0.598,3.16-1.796,4.359c-1.195,1.199-2.65,1.796-4.359,1.796c-1.708-0.002-3.164-0.603-4.36-1.796
	c-1.195-1.193-1.795-2.649-1.795-4.359s0.598-3.163,1.795-4.359c1.196-1.195,2.652-1.793,4.36-1.795
	c1.707,0,3.164,0.599,4.359,1.795C17.56,10.837,18.157,12.291,18.157,13.999z M19.845,7.594c0,0.396-0.14,0.734-0.422,1.017
	c-0.282,0.281-0.622,0.422-1.016,0.422c-0.396,0-0.734-0.141-1.017-0.422c-0.282-0.282-0.422-0.62-0.422-1.017
	c0-0.396,0.14-0.733,0.422-1.015s0.62-0.421,1.017-0.421c0.394,0,0.733,0.14,1.016,0.421S19.845,7.198,19.845,7.594z M12.002,4.157
	c-0.074,0-0.472-0.002-1.196-0.008c-0.723-0.007-1.273-0.007-1.647,0c-0.376,0.004-0.878,0.02-1.508,0.046
	c-0.63,0.025-1.167,0.078-1.61,0.155c-0.442,0.078-0.816,0.177-1.118,0.29c-0.521,0.208-0.98,0.511-1.375,0.906
	C3.152,5.943,2.849,6.401,2.641,6.922C2.527,7.224,2.429,7.598,2.351,8.04s-0.13,0.98-0.156,1.61
	c-0.025,0.63-0.039,1.134-0.045,1.508c-0.007,0.376-0.007,0.923,0,1.646C2.154,13.529,2.158,13.928,2.158,14
	s-0.002,0.472-0.008,1.199c-0.007,0.721-0.007,1.271,0,1.645c0.004,0.375,0.02,0.875,0.045,1.508
	c0.026,0.632,0.078,1.168,0.156,1.611c0.08,0.442,0.176,0.814,0.29,1.118c0.208,0.521,0.511,0.979,0.906,1.375
	c0.396,0.396,0.854,0.7,1.375,0.906c0.302,0.116,0.676,0.21,1.118,0.292c0.442,0.078,0.979,0.13,1.61,0.156
	c0.63,0.025,1.132,0.042,1.508,0.044c0.374,0.006,0.924,0.006,1.647,0c0.725-0.007,1.122-0.011,1.196-0.011s0.472,0.004,1.196,0.009
	c0.724,0.006,1.272,0.006,1.647,0c0.375-0.005,0.877-0.021,1.508-0.045c0.63-0.025,1.167-0.077,1.609-0.155
	c0.444-0.08,0.816-0.177,1.12-0.292c0.521-0.208,0.979-0.51,1.376-0.906c0.394-0.394,0.697-0.854,0.905-1.375
	c0.114-0.302,0.21-0.676,0.29-1.118c0.078-0.443,0.128-0.979,0.156-1.611c0.023-0.631,0.039-1.133,0.045-1.508
	c0.005-0.375,0.005-0.924,0-1.645c-0.008-0.727-0.01-1.125-0.01-1.199s0.002-0.472,0.01-1.196c0.005-0.723,0.005-1.271,0-1.646
	c-0.008-0.376-0.023-0.878-0.045-1.508c-0.028-0.63-0.078-1.168-0.156-1.61c-0.078-0.442-0.176-0.816-0.29-1.118
	c-0.208-0.521-0.512-0.979-0.905-1.375c-0.399-0.394-0.856-0.696-1.378-0.904c-0.302-0.113-0.676-0.212-1.12-0.29
	c-0.44-0.077-0.978-0.13-1.607-0.155c-0.631-0.026-1.135-0.04-1.508-0.046c-0.377-0.007-0.924-0.007-1.647,0
	C12.474,4.155,12.076,4.157,12.002,4.157z M24,13.999c0,2.385-0.028,4.037-0.078,4.953c-0.104,2.168-0.75,3.843-1.938,5.033
	c-1.188,1.188-2.865,1.834-5.031,1.938C16.035,25.974,14.383,26,11.998,26c-2.385,0-4.038-0.026-4.953-0.078
	c-2.166-0.105-3.841-0.752-5.03-1.939c-1.187-1.19-1.833-2.865-1.937-5.033C0.025,18.035,0,16.384,0,13.999s0.025-4.037,0.078-4.953
	c0.104-2.166,0.75-3.843,1.937-5.031c1.188-1.187,2.864-1.833,5.032-1.937C7.962,2.026,9.615,2,12,2
	c2.383,0,4.037,0.026,4.955,0.078c2.166,0.104,3.844,0.75,5.031,1.937c1.188,1.188,1.834,2.865,1.938,5.031
	C23.972,9.961,24,11.613,24,13.999z"/>
</svg>
