<?xml version="1.0" encoding="utf-8"?>
<!-- Generator: Adobe Illustrator 16.0.0, SVG Export Plug-In . SVG Version: 6.00 Build 0)  -->
<!DOCTYPE svg PUBLIC "-//W3C//DTD SVG 1.1//EN" "http://www.w3.org/Graphics/SVG/1.1/DTD/svg11.dtd">
<svg version="1.1" id="Layer_1" xmlns="http://www.w3.org/2000/svg" xmlns:xlink="http://www.w3.org/1999/xlink" x="0px" y="0px"
	 width="12px" height="14px" viewBox="0 0 12 14" enable-background="new 0 0 12 14" xml:space="preserve">
<path fill="#666666" d="M8,7c0-0.552-0.195-1.023-0.586-1.414S6.553,5,6,5C5.448,5,4.977,5.195,4.586,5.586S4,6.448,4,7
	s0.195,1.023,0.586,1.414S5.448,9,6,9c0.553,0,1.023-0.195,1.414-0.586S8,7.552,8,7z M9.078,7c0,0.854-0.299,1.58-0.898,2.18
	c-0.598,0.6-1.325,0.898-2.18,0.898C5.146,10.077,4.418,9.777,3.82,9.18S2.922,7.855,2.922,7S3.221,5.418,3.82,4.82
	C4.418,4.222,5.146,3.923,6,3.922c0.854,0,1.582,0.299,2.18,0.898C8.779,5.419,9.078,6.146,9.078,7z M9.922,3.797
	c0,0.198-0.07,0.367-0.211,0.508C9.57,4.446,9.4,4.516,9.203,4.516c-0.198,0-0.367-0.07-0.508-0.211
	c-0.141-0.141-0.211-0.31-0.211-0.508c0-0.198,0.07-0.367,0.211-0.508s0.31-0.211,0.508-0.211c0.197,0,0.367,0.07,0.508,0.211
	S9.922,3.599,9.922,3.797z M6,2.078c-0.037,0-0.236-0.001-0.598-0.004c-0.362-0.003-0.637-0.003-0.824,0
	c-0.188,0.002-0.439,0.01-0.754,0.023C3.509,2.11,3.24,2.136,3.019,2.175C2.798,2.214,2.611,2.263,2.46,2.32
	C2.199,2.424,1.97,2.575,1.772,2.773C1.574,2.971,1.423,3.2,1.319,3.461C1.262,3.612,1.213,3.799,1.174,4.02
	C1.135,4.241,1.109,4.51,1.096,4.825C1.083,5.14,1.076,5.392,1.073,5.579c-0.003,0.188-0.003,0.462,0,0.824
	c0.002,0.362,0.004,0.562,0.004,0.598S1.076,7.237,1.073,7.6c-0.003,0.361-0.003,0.637,0,0.823c0.002,0.188,0.01,0.438,0.023,0.754
	s0.039,0.584,0.078,0.806c0.04,0.221,0.088,0.407,0.145,0.559c0.104,0.261,0.255,0.49,0.453,0.688
	c0.198,0.198,0.427,0.35,0.688,0.453c0.151,0.058,0.338,0.105,0.559,0.146c0.221,0.039,0.49,0.065,0.805,0.078
	c0.315,0.013,0.566,0.021,0.754,0.022c0.187,0.003,0.462,0.003,0.824,0C5.764,11.926,5.963,11.924,6,11.924s0.236,0.002,0.598,0.004
	c0.362,0.003,0.637,0.003,0.824,0c0.188-0.002,0.439-0.01,0.754-0.022c0.315-0.013,0.584-0.039,0.805-0.078
	c0.222-0.04,0.408-0.088,0.56-0.146c0.261-0.104,0.489-0.255,0.688-0.453c0.197-0.197,0.349-0.427,0.453-0.688
	c0.057-0.151,0.105-0.338,0.145-0.559c0.039-0.222,0.064-0.49,0.078-0.806c0.012-0.315,0.02-0.566,0.023-0.754
	c0.002-0.187,0.002-0.462,0-0.823c-0.004-0.363-0.005-0.562-0.005-0.599s0.001-0.236,0.005-0.598c0.002-0.362,0.002-0.636,0-0.824
	c-0.004-0.188-0.012-0.439-0.023-0.754c-0.014-0.315-0.039-0.584-0.078-0.805s-0.088-0.408-0.145-0.559
	c-0.104-0.261-0.256-0.49-0.453-0.688C10.029,2.575,9.801,2.424,9.54,2.32C9.389,2.263,9.202,2.214,8.98,2.175
	C8.76,2.136,8.491,2.11,8.176,2.097C7.861,2.084,7.609,2.077,7.422,2.074c-0.188-0.003-0.462-0.003-0.824,0
	C6.236,2.077,6.037,2.078,6,2.078z M12,7c0,1.193-0.014,2.019-0.039,2.477c-0.052,1.084-0.375,1.922-0.969,2.517
	c-0.594,0.594-1.433,0.917-2.516,0.969c-0.459,0.026-1.285,0.039-2.478,0.039c-1.193,0-2.019-0.013-2.477-0.039
	C2.438,12.91,1.6,12.587,1.006,11.993c-0.594-0.595-0.917-1.433-0.969-2.517C0.011,9.019-0.002,8.193-0.002,7
	c0-1.193,0.013-2.019,0.039-2.477c0.052-1.083,0.375-1.922,0.969-2.516C1.6,1.413,2.438,1.09,3.522,1.038
	C3.98,1.012,4.806,0.999,5.999,0.999c1.192,0,2.019,0.013,2.478,0.039c1.083,0.052,1.922,0.375,2.516,0.969
	c0.594,0.594,0.917,1.433,0.969,2.516C11.986,4.981,12,5.807,12,7z"/>
</svg>
