<?xml version="1.0" encoding="utf-8"?>
<!-- Generator: Adobe Illustrator 16.0.0, SVG Export Plug-In . SVG Version: 6.00 Build 0)  -->
<!DOCTYPE svg PUBLIC "-//W3C//DTD SVG 1.1//EN" "http://www.w3.org/Graphics/SVG/1.1/DTD/svg11.dtd">
<svg version="1.1" id="Layer_1" xmlns="http://www.w3.org/2000/svg" xmlns:xlink="http://www.w3.org/1999/xlink" x="0px" y="0px"
	 width="24px" height="28px" viewBox="0 0 24 28" enable-background="new 0 0 24 28" xml:space="preserve">
<path fill="#666666" d="M3.704,22.094h3.61V11.25h-3.61V22.094z M7.546,7.906c-0.01-0.542-0.198-0.99-0.562-1.345
	C6.62,6.208,6.136,6.03,5.53,6.03c-0.606,0-1.099,0.178-1.477,0.531C3.676,6.916,3.486,7.364,3.484,7.906
	c0,0.529,0.184,0.976,0.554,1.336c0.37,0.359,0.852,0.54,1.446,0.54H5.5c0.614,0,1.11-0.181,1.484-0.54
	C7.357,8.882,7.546,8.436,7.546,7.906z M16.688,22.094h3.61v-6.218c0-1.604-0.378-2.816-1.138-3.638
	c-0.762-0.824-1.768-1.236-3.021-1.236c-1.413,0-2.504,0.61-3.264,1.828h0.032v-1.578h-3.61c0.032,0.688,0.032,4.302,0,10.844h3.61
	v-6.06c0-0.398,0.036-0.69,0.109-0.876c0.156-0.364,0.391-0.674,0.707-0.931c0.312-0.256,0.699-0.384,1.155-0.382
	c1.208,0,1.812,0.818,1.812,2.456v5.794L16.688,22.094z M24,6.5v15c0,1.24-0.441,2.3-1.32,3.18C21.8,25.56,20.74,26,19.5,26h-15
	c-1.24,0-2.3-0.44-3.18-1.32C0.439,23.8,0,22.74,0,21.5v-15c0-1.24,0.439-2.3,1.32-3.18C2.2,2.44,3.26,2,4.5,2h15
	c1.24,0,2.3,0.44,3.18,1.32C23.559,4.2,24,5.26,24,6.5z"/>
</svg>
