<?xml version="1.0" encoding="utf-8"?>
<!-- Generator: Adobe Illustrator 16.0.0, SVG Export Plug-In . SVG Version: 6.00 Build 0)  -->
<!DOCTYPE svg PUBLIC "-//W3C//DTD SVG 1.1//EN" "http://www.w3.org/Graphics/SVG/1.1/DTD/svg11.dtd">
<svg version="1.1" id="Layer_1" xmlns="http://www.w3.org/2000/svg" xmlns:xlink="http://www.w3.org/1999/xlink" x="0px" y="0px"
	 width="12px" height="14px" viewBox="0 0 12 14" enable-background="new 0 0 12 14" xml:space="preserve">
<path fill="#666666" d="M1.852,11.047h1.805V5.625H1.852V11.047z M3.773,3.953C3.768,3.682,3.674,3.458,3.492,3.281
	C3.31,3.104,3.068,3.015,2.765,3.015S2.216,3.104,2.027,3.281C1.838,3.458,1.743,3.682,1.742,3.953c0,0.265,0.092,0.488,0.277,0.668
	c0.185,0.18,0.426,0.27,0.723,0.27H2.75c0.307,0,0.555-0.09,0.742-0.27C3.679,4.441,3.773,4.218,3.773,3.953z M8.344,11.047h1.805
	V7.938c0-0.802-0.189-1.408-0.569-1.819C9.199,5.707,8.696,5.501,8.07,5.501c-0.707,0-1.252,0.305-1.632,0.914h0.016V5.626H4.649
	c0.016,0.344,0.016,2.151,0,5.422h1.805v-3.03c0-0.199,0.018-0.345,0.055-0.438c0.078-0.182,0.195-0.337,0.353-0.465
	c0.156-0.128,0.35-0.192,0.578-0.191c0.604,0,0.906,0.409,0.906,1.228v2.897L8.344,11.047z M12,3.25v7.5
	c0,0.62-0.221,1.15-0.66,1.59C10.9,12.78,10.37,13,9.75,13h-7.5c-0.62,0-1.15-0.22-1.59-0.66C0.22,11.9,0,11.37,0,10.75v-7.5
	C0,2.63,0.22,2.1,0.66,1.66C1.1,1.22,1.63,1,2.25,1h7.5c0.62,0,1.15,0.22,1.59,0.66C11.779,2.1,12,2.63,12,3.25z"/>
</svg>
