<?xml version="1.0" encoding="utf-8"?>
<!-- Generator: Adobe Illustrator 16.0.0, SVG Export Plug-In . SVG Version: 6.00 Build 0)  -->
<!DOCTYPE svg PUBLIC "-//W3C//DTD SVG 1.1//EN" "http://www.w3.org/Graphics/SVG/1.1/DTD/svg11.dtd">
<svg version="1.1" id="Layer_1" xmlns="http://www.w3.org/2000/svg" xmlns:xlink="http://www.w3.org/1999/xlink" x="0px" y="0px"
	 width="24px" height="28px" viewBox="0 0 24 28" enable-background="new 0 0 24 28" xml:space="preserve">
<path fill="#666666" d="M19.501,2.009c1.24,0,2.299,0.44,3.179,1.32C23.559,4.208,24,5.268,24,6.507v14.995
	c0,1.239-0.441,2.298-1.32,3.178C21.8,25.56,20.741,26,19.501,26H8.174c0.887-1.271,1.448-2.364,1.688-3.281
	c0.092-0.355,0.37-1.445,0.827-3.265c0.219,0.406,0.601,0.754,1.148,1.044c0.548,0.289,1.132,0.436,1.758,0.438
	c1.887,0,3.425-0.768,4.617-2.301c1.196-1.538,1.792-3.48,1.792-5.834c0-0.874-0.182-1.721-0.544-2.539
	c-0.368-0.817-0.87-1.543-1.51-2.171c-0.645-0.628-1.438-1.133-2.383-1.515c-0.947-0.382-1.973-0.57-3.078-0.57
	c-1.084,0-2.098,0.147-3.04,0.446C8.506,6.75,7.71,7.147,7.062,7.646c-0.65,0.5-1.211,1.07-1.681,1.709
	c-0.47,0.64-0.815,1.306-1.04,1.999c-0.224,0.694-0.336,1.384-0.336,2.069c0,1.063,0.206,2,0.618,2.812
	c0.412,0.809,1.018,1.383,1.819,1.715c0.137,0.052,0.259,0.052,0.369,0c0.109-0.05,0.184-0.15,0.226-0.294
	c0.104-0.458,0.182-0.778,0.233-0.954c0.064-0.24,0.006-0.457-0.172-0.658c-0.521-0.643-0.781-1.423-0.781-2.34
	c0-1.562,0.539-2.897,1.617-4.006c1.08-1.11,2.488-1.664,4.226-1.664c1.551,0,2.764,0.422,3.629,1.265
	c0.872,0.843,1.306,1.938,1.306,3.281c0,1.75-0.352,3.239-1.054,4.464c-0.703,1.23-1.605,1.844-2.709,1.844
	c-0.626,0-1.13-0.227-1.516-0.68c-0.387-0.454-0.506-0.992-0.36-1.617c0.084-0.355,0.22-0.836,0.414-1.446
	c0.194-0.608,0.346-1.141,0.46-1.593c0.113-0.452,0.172-0.839,0.172-1.162c0-0.509-0.138-0.933-0.414-1.273
	c-0.275-0.339-0.668-0.507-1.18-0.507c-0.636,0-1.175,0.294-1.618,0.881c-0.442,0.588-0.664,1.313-0.664,2.179
	c0,0.75,0.126,1.379,0.374,1.887l-1.532,6.466c-0.25,1.042-0.286,2.362-0.11,3.967H4.5c-1.24,0-2.3-0.442-3.179-1.32
	C0.439,23.792,0,22.73,0,21.492V6.498c0-1.24,0.439-2.299,1.32-3.179C2.2,2.439,3.259,2,4.5,2h14.998L19.501,2.009z"/>
</svg>
