<?xml version="1.0" encoding="utf-8"?>
<!-- Generator: Adobe Illustrator 16.0.0, SVG Export Plug-In . SVG Version: 6.00 Build 0)  -->
<!DOCTYPE svg PUBLIC "-//W3C//DTD SVG 1.1//EN" "http://www.w3.org/Graphics/SVG/1.1/DTD/svg11.dtd">
<svg version="1.1" id="Layer_1" xmlns="http://www.w3.org/2000/svg" xmlns:xlink="http://www.w3.org/1999/xlink" x="0px" y="0px"
	 width="12px" height="14px" viewBox="0 0 12 14" enable-background="new 0 0 12 14" xml:space="preserve">
<path fill="#666666" d="M9.75,1c0.62,0,1.15,0.22,1.59,0.66C11.779,2.1,12,2.63,12,3.25v7.5c0,0.62-0.221,1.15-0.66,1.59
	C10.9,12.78,10.37,13,9.75,13H4.086c0.443-0.635,0.724-1.182,0.844-1.641c0.046-0.178,0.185-0.723,0.414-1.633
	c0.109,0.203,0.3,0.377,0.574,0.522s0.566,0.218,0.879,0.219c0.943,0,1.713-0.384,2.309-1.151c0.598-0.769,0.896-1.741,0.896-2.918
	c0-0.437-0.091-0.861-0.272-1.27C9.546,4.719,9.295,4.356,8.975,4.042C8.653,3.728,8.256,3.475,7.783,3.284
	C7.31,3.093,6.797,2.999,6.244,2.999c-0.542,0-1.049,0.074-1.52,0.223C4.252,3.371,3.854,3.57,3.529,3.82
	c-0.325,0.25-0.605,0.535-0.84,0.855c-0.235,0.32-0.408,0.653-0.52,1S2.001,6.367,2.001,6.71c0,0.531,0.103,1,0.309,1.406
	c0.206,0.405,0.509,0.692,0.91,0.858c0.068,0.026,0.129,0.026,0.184,0c0.055-0.025,0.092-0.075,0.113-0.147
	C3.569,8.598,3.608,8.438,3.634,8.35C3.666,8.23,3.637,8.121,3.548,8.021C3.287,7.699,3.157,7.309,3.157,6.85
	c0-0.781,0.27-1.449,0.809-2.004c0.54-0.555,1.244-0.832,2.113-0.832c0.776,0,1.382,0.211,1.815,0.633
	C8.33,5.069,8.547,5.616,8.547,6.288c0,0.875-0.176,1.62-0.527,2.233C7.668,9.136,7.217,9.443,6.665,9.443
	c-0.313,0-0.565-0.113-0.758-0.34c-0.193-0.227-0.253-0.496-0.18-0.809c0.042-0.178,0.11-0.418,0.207-0.723s0.173-0.571,0.23-0.797
	S6.25,6.354,6.25,6.193c0-0.255-0.069-0.467-0.207-0.637s-0.334-0.254-0.59-0.254c-0.318,0-0.588,0.147-0.809,0.441
	S4.312,6.4,4.312,6.833c0,0.375,0.063,0.69,0.187,0.944l-0.766,3.234c-0.125,0.521-0.143,1.182-0.055,1.984h-1.43
	c-0.62,0-1.15-0.221-1.59-0.66c-0.44-0.439-0.66-0.97-0.66-1.59v-7.5c0-0.62,0.22-1.15,0.66-1.59c0.44-0.44,0.97-0.66,1.59-0.66h7.5
	L9.75,1z"/>
</svg>
