<?xml version="1.0" encoding="utf-8"?>
<!-- Generator: Adobe Illustrator 16.0.0, SVG Export Plug-In . SVG Version: 6.00 Build 0)  -->
<!DOCTYPE svg PUBLIC "-//W3C//DTD SVG 1.1//EN" "http://www.w3.org/Graphics/SVG/1.1/DTD/svg11.dtd">
<svg version="1.1" id="Layer_1" xmlns="http://www.w3.org/2000/svg" xmlns:xlink="http://www.w3.org/1999/xlink" x="0px" y="0px"
	 width="12px" height="14px" viewBox="0 0 12 14" enable-background="new 0 0 12 14" xml:space="preserve">
<path fill="#666666" d="M4,10c0-0.275-0.098-0.512-0.293-0.707S3.276,9,3,9S2.488,9.098,2.293,9.293S2,9.725,2,10
	s0.098,0.512,0.293,0.707S2.724,11,3,11s0.512-0.098,0.707-0.293S4,10.275,4,10z M6.742,10.734c-0.068-1.209-0.529-2.24-1.383-3.094
	C4.505,6.785,3.474,6.324,2.265,6.257C2.192,6.251,2.13,6.275,2.078,6.327C2.026,6.379,2,6.439,2,6.507v1
	C2,7.575,2.022,7.633,2.066,7.68c0.044,0.046,0.1,0.072,0.168,0.077c0.802,0.058,1.489,0.372,2.062,0.945
	c0.573,0.572,0.888,1.26,0.945,2.062c0.005,0.068,0.031,0.125,0.078,0.168c0.047,0.045,0.104,0.066,0.172,0.066h1
	c0.067,0,0.128-0.025,0.18-0.078c0.052-0.052,0.075-0.114,0.07-0.188L6.742,10.734z M9.742,10.742
	C9.716,9.939,9.57,9.166,9.305,8.418c-0.267-0.747-0.63-1.424-1.091-2.031C7.754,5.78,7.219,5.246,6.611,4.785
	c-0.606-0.461-1.284-0.825-2.03-1.09C3.834,3.43,3.06,3.284,2.257,3.257c-0.072-0.005-0.132,0.018-0.18,0.07
	c-0.052,0.052-0.078,0.112-0.078,0.18v1c0,0.068,0.023,0.125,0.07,0.172c0.047,0.046,0.104,0.072,0.172,0.078
	c1.063,0.037,2.047,0.327,2.953,0.871C6.1,6.172,6.825,6.897,7.37,7.805c0.544,0.906,0.835,1.891,0.871,2.952
	c0.005,0.068,0.031,0.126,0.077,0.173c0.047,0.046,0.104,0.069,0.173,0.069h1c0.067,0,0.128-0.026,0.18-0.078
	C9.729,10.875,9.752,10.814,9.742,10.742L9.742,10.742z M12,3.25v7.5c0,0.62-0.221,1.15-0.66,1.59C10.9,12.78,10.37,13,9.75,13h-7.5
	c-0.62,0-1.15-0.22-1.59-0.66C0.22,11.9,0,11.37,0,10.75v-7.5C0,2.63,0.22,2.1,0.66,1.66C1.1,1.22,1.63,1,2.25,1h7.5
	c0.62,0,1.15,0.22,1.59,0.66C11.779,2.1,12,2.63,12,3.25z"/>
</svg>
