<?xml version="1.0" encoding="utf-8"?>
<!-- Generator: Adobe Illustrator 16.0.0, SVG Export Plug-In . SVG Version: 6.00 Build 0)  -->
<!DOCTYPE svg PUBLIC "-//W3C//DTD SVG 1.1//EN" "http://www.w3.org/Graphics/SVG/1.1/DTD/svg11.dtd">
<svg version="1.1" id="Layer_1" xmlns="http://www.w3.org/2000/svg" xmlns:xlink="http://www.w3.org/1999/xlink" x="0px" y="0px"
	 width="24px" height="28px" viewBox="0 0 24 28" enable-background="new 0 0 24 28" xml:space="preserve">
<path fill="#666666" d="M8,20c0-0.55-0.196-1.024-0.586-1.414C7.023,18.196,6.552,18,6,18s-1.023,0.196-1.414,0.586
	C4.196,18.976,4,19.45,4,20s0.196,1.024,0.586,1.414C4.977,21.804,5.448,22,6,22s1.023-0.196,1.414-0.586C7.804,21.024,8,20.55,8,20
	z M13.484,21.468c-0.137-2.418-1.059-4.479-2.767-6.188c-1.708-1.71-3.77-2.632-6.188-2.767c-0.146-0.012-0.271,0.036-0.374,0.141
	C4.052,12.758,4,12.878,4,13.014v2c0,0.137,0.044,0.252,0.132,0.347c0.088,0.092,0.2,0.144,0.336,0.153
	c1.604,0.116,2.979,0.744,4.124,1.891c1.146,1.144,1.776,2.52,1.891,4.124c0.01,0.136,0.062,0.25,0.155,0.336
	c0.095,0.09,0.208,0.132,0.345,0.132h2c0.134,0,0.256-0.05,0.359-0.156c0.104-0.104,0.15-0.228,0.141-0.376L13.484,21.468z
	 M19.484,21.484c-0.053-1.606-0.345-3.152-0.874-4.648c-0.534-1.494-1.261-2.848-2.183-4.062c-0.92-1.215-1.99-2.282-3.206-3.204
	c-1.212-0.922-2.567-1.65-4.06-2.181C7.668,6.86,6.12,6.568,4.514,6.514C4.37,6.504,4.25,6.55,4.154,6.654
	C4.05,6.758,3.998,6.878,3.998,7.014v2c0,0.137,0.046,0.25,0.14,0.345C4.232,9.45,4.346,9.502,4.482,9.514
	c2.125,0.074,4.094,0.654,5.905,1.742c1.813,1.088,3.263,2.538,4.353,4.354c1.088,1.812,1.67,3.781,1.742,5.903
	c0.01,0.137,0.062,0.252,0.153,0.347c0.095,0.092,0.208,0.138,0.347,0.138h2c0.134,0,0.256-0.052,0.359-0.156
	C19.458,21.75,19.504,21.628,19.484,21.484L19.484,21.484z M24,6.5v15c0,1.24-0.441,2.3-1.32,3.18C21.8,25.56,20.74,26,19.5,26h-15
	c-1.24,0-2.3-0.44-3.18-1.32C0.439,23.8,0,22.74,0,21.5v-15c0-1.24,0.439-2.3,1.32-3.18C2.2,2.44,3.26,2,4.5,2h15
	c1.24,0,2.3,0.44,3.18,1.32C23.559,4.2,24,5.26,24,6.5z"/>
</svg>
