<?xml version="1.0" encoding="utf-8"?>
<!-- Generator: Adobe Illustrator 16.0.0, SVG Export Plug-In . SVG Version: 6.00 Build 0)  -->
<!DOCTYPE svg PUBLIC "-//W3C//DTD SVG 1.1//EN" "http://www.w3.org/Graphics/SVG/1.1/DTD/svg11.dtd">
<svg version="1.1" id="Capa_1" xmlns="http://www.w3.org/2000/svg" xmlns:xlink="http://www.w3.org/1999/xlink" x="0px" y="0px"
	 width="512px" height="512px" viewBox="0 0 512 512" enable-background="new 0 0 512 512" xml:space="preserve">
<path fill="#666666" d="M485.338,305.999c3.549-17.112,5.329-33.782,5.329-50c0-31.778-6.159-62.167-18.498-91.169
	c-12.331-28.999-28.999-53.996-49.999-74.998c-21-21.001-45.994-37.667-74.994-50.004c-29.008-12.327-59.388-18.497-91.17-18.497
	c-16.222,0-32.89,1.779-50.001,5.336C182.894,8.89,156.893,0,128.003,0C92.672,0,62.507,12.498,37.505,37.495
	c-25.003,25.003-37.5,55.168-37.5,90.501c0,28.89,8.889,54.89,26.665,78.001c-3.554,17.11-5.333,33.78-5.333,50.002
	c0,31.773,6.165,62.162,18.497,91.165c12.332,28.999,28.999,53.998,50.001,75.003c21,20.999,46.001,37.66,75,49.998
	c29.001,12.333,59.391,18.499,91.168,18.499c16.22,0,32.889-1.781,50.01-5.338c23.104,17.78,49.104,26.675,77.994,26.675
	c35.328,0,65.502-12.506,90.489-37.501c25.003-25.004,37.501-55.169,37.501-90.505C511.992,355.111,503.105,329.114,485.338,305.999
	z M379.995,355.498c-7.327,13.001-17.165,23.389-29.495,31.168c-12.337,7.779-25.947,13.716-40.834,17.832
	c-14.887,4.107-30.44,6.168-46.667,6.168c-37.551,0-69.882-7.28-96.995-21.839c-27.113-14.561-40.668-32.052-40.668-52.501
	c0-9.996,2.834-18.322,8.501-24.994c5.666-6.669,14.055-9.996,25.166-9.996c6.445,0,12.442,1.776,17.998,5.328
	c5.555,3.557,10.665,7.84,15.334,12.842c4.669,5.003,9.721,9.996,15.166,14.999c5.442,5.003,12.664,9.277,21.664,12.833
	c9.001,3.557,19.168,5.338,30.505,5.338c14.443,0,26.105-2.829,35.003-8.493c8.885-5.673,13.329-12.842,13.329-21.504
	c0-8.894-3.553-15.559-10.66-20.002c-4.883-3.12-17.333-7.119-37.334-12.005l-48.671-12.007
	c-13.332-3.108-24.777-6.716-34.334-10.824c-9.557-4.114-18.447-9.497-26.667-16.169c-8.218-6.664-14.441-15.051-18.664-25.166
	c-4.222-10.108-6.333-21.944-6.333-35.5c0-16.224,3.724-30.496,11.165-42.834c7.442-12.335,17.336-22.003,29.666-29.002
	c12.332-7.001,25.61-12.222,39.834-15.666c14.22-3.445,28.887-5.167,43.998-5.167c21.338,0,41.552,2.557,60.666,7.667
	c19.11,5.11,34.888,12.61,47.329,22.499c12.441,9.893,18.662,20.947,18.662,33.168c0,9.996-3.16,18.556-9.501,25.665
	c-6.321,7.107-14.712,10.664-25.16,10.664c-5.776,0-11.107-1.335-15.997-4.002c-4.888-2.665-9.328-5.886-13.337-9.664
	c-4-3.776-8.228-7.499-12.67-11.165c-4.443-3.666-10.444-6.833-17.991-9.499c-7.564-2.667-16.114-4.001-25.669-4.001
	c-31.997,0-47.999,8.55-47.999,25.664c0,3.776,0.835,7.11,2.5,9.999c1.666,2.889,3.503,5.222,5.499,7
	c1.996,1.78,5.33,3.557,9.999,5.336c4.669,1.78,8.558,3.062,11.668,3.834c3.109,0.777,8.002,1.944,14.667,3.498l34.668,7.999
	c10.887,2.446,20.604,5.004,29.166,7.667c8.559,2.671,17.724,6.445,27.5,11.336c9.777,4.889,17.889,10.33,24.33,16.332
	c6.447,6.005,11.834,13.608,16.173,22.83c4.337,9.225,6.496,19.393,6.496,30.5C390.998,327.886,387.338,342.5,379.995,355.498z"/>
</svg>
