<?xml version="1.0" encoding="utf-8"?>
<!-- Generator: Adobe Illustrator 16.0.0, SVG Export Plug-In . SVG Version: 6.00 Build 0)  -->
<!DOCTYPE svg PUBLIC "-//W3C//DTD SVG 1.1//EN" "http://www.w3.org/Graphics/SVG/1.1/DTD/svg11.dtd">
<svg version="1.1" id="Capa_1" xmlns="http://www.w3.org/2000/svg" xmlns:xlink="http://www.w3.org/1999/xlink" x="0px" y="0px"
	 width="24px" height="28px" viewBox="0 0 24 28" enable-background="new 0 0 24 28" xml:space="preserve">
<path fill="#666666" d="M22.75,16.344C22.918,15.543,23,14.76,23,14c0-1.49-0.29-2.914-0.868-4.274
	c-0.578-1.359-1.36-2.531-2.344-3.516c-0.984-0.984-2.156-1.763-3.515-2.341C14.916,3.292,13.488,3,12,3
	c-0.76,0-1.542,0.084-2.344,0.25C8.572,2.416,7.352,2,6,2C4.344,2,2.93,2.585,1.758,3.757S0,6.343,0,7.999
	c0,1.354,0.416,2.572,1.25,3.656C1.084,12.458,1,13.239,1,13.999c0,1.488,0.29,2.914,0.868,4.276
	c0.578,1.359,1.362,2.531,2.344,3.516c0.984,0.984,2.156,1.766,3.519,2.344C9.086,24.71,10.51,25,12,25
	c0.76,0,1.542-0.084,2.342-0.25C15.43,25.584,16.648,26,18,26c1.656,0,3.07-0.586,4.242-1.758S24,21.656,24,20
	C24,18.644,23.586,17.428,22.75,16.344z M17.813,18.664c-0.345,0.61-0.805,1.096-1.383,1.46s-1.214,0.64-1.914,0.836
	c-0.695,0.194-1.426,0.29-2.186,0.29c-1.76,0-3.276-0.342-4.544-1.024c-1.272-0.684-1.906-1.504-1.906-2.46
	c0-0.468,0.13-0.859,0.398-1.172c0.266-0.311,0.657-0.467,1.18-0.467c0.3,0,0.582,0.086,0.844,0.25
	c0.259,0.166,0.498,0.367,0.714,0.6c0.219,0.233,0.459,0.468,0.711,0.705c0.252,0.238,0.594,0.437,1.016,0.604s0.897,0.25,1.43,0.25
	c0.676,0,1.227-0.132,1.641-0.398c0.418-0.266,0.625-0.602,0.625-1.008c0-0.417-0.164-0.728-0.5-0.937
	c-0.228-0.15-0.81-0.336-1.75-0.564l-2.279-0.563c-0.628-0.146-1.162-0.314-1.612-0.508c-0.448-0.19-0.864-0.444-1.25-0.758
	c-0.382-0.312-0.676-0.708-0.876-1.18c-0.195-0.475-0.296-1.028-0.296-1.662c0-0.762,0.176-1.43,0.526-2.008
	c0.35-0.578,0.81-1.034,1.388-1.362s1.202-0.574,1.87-0.731c0.668-0.16,1.354-0.242,2.06-0.242c1,0,1.95,0.12,2.845,0.359
	c0.897,0.236,1.638,0.588,2.22,1.055c0.586,0.462,0.876,0.979,0.876,1.552c0,0.466-0.148,0.87-0.446,1.206
	c-0.296,0.332-0.692,0.5-1.18,0.5c-0.274,0-0.524-0.063-0.75-0.19c-0.227-0.127-0.438-0.275-0.626-0.456
	c-0.188-0.176-0.387-0.35-0.594-0.521c-0.211-0.172-0.492-0.32-0.845-0.446c-0.355-0.126-0.754-0.188-1.206-0.188
	c-1.5,0-2.25,0.397-2.25,1.204c0,0.176,0.042,0.335,0.12,0.467s0.164,0.244,0.258,0.328c0.095,0.084,0.25,0.166,0.468,0.25
	c0.217,0.084,0.4,0.144,0.545,0.18c0.144,0.036,0.378,0.09,0.688,0.164l1.628,0.376c0.509,0.116,0.964,0.234,1.368,0.362
	s0.828,0.302,1.29,0.531c0.46,0.23,0.84,0.484,1.14,0.769c0.301,0.282,0.555,0.635,0.758,1.067c0.205,0.434,0.305,0.908,0.305,1.434
	C18.328,17.372,18.156,18.054,17.813,18.664z"/>
</svg>
