<?xml version="1.0" encoding="utf-8"?>
<!-- Generator: Adobe Illustrator 16.0.0, SVG Export Plug-In . SVG Version: 6.00 Build 0)  -->
<!DOCTYPE svg PUBLIC "-//W3C//DTD SVG 1.1//EN" "http://www.w3.org/Graphics/SVG/1.1/DTD/svg11.dtd">
<svg version="1.1" id="Layer_1" xmlns="http://www.w3.org/2000/svg" xmlns:xlink="http://www.w3.org/1999/xlink" x="0px" y="0px"
	 width="12px" height="14px" viewBox="0 0 12 14" enable-background="new 0 0 12 14" xml:space="preserve">
<path fill="#666666" d="M10,4.766c-0.292,0.13-0.607,0.219-0.945,0.266C9.409,4.824,9.651,4.52,9.782,4.118
	C9.443,4.316,9.094,4.449,8.734,4.516C8.417,4.172,8.019,4,7.54,4C7.086,4,6.7,4.16,6.38,4.48C6.06,4.8,5.9,5.187,5.9,5.64
	c0,0.151,0.013,0.276,0.039,0.375C5.267,5.979,4.637,5.809,4.048,5.507c-0.588-0.302-1.088-0.706-1.5-1.211
	C2.396,4.557,2.321,4.833,2.321,5.124c0,0.594,0.237,1.05,0.711,1.367C2.787,6.486,2.527,6.418,2.251,6.288v0.016
	c0,0.391,0.13,0.738,0.391,1.043C2.903,7.652,3.223,7.84,3.603,7.913C3.452,7.954,3.319,7.975,3.205,7.975
	c-0.068,0-0.17-0.01-0.305-0.031c0.109,0.328,0.303,0.6,0.582,0.813S4.077,9.08,4.431,9.085C3.827,9.554,3.147,9.788,2.392,9.788
	c-0.135,0-0.266-0.008-0.391-0.022c0.771,0.488,1.609,0.733,2.516,0.733c0.583,0,1.13-0.093,1.641-0.276
	c0.51-0.186,0.948-0.433,1.313-0.742C7.836,9.17,8.149,8.813,8.412,8.41S8.87,7.584,8.998,7.144
	c0.128-0.441,0.191-0.879,0.191-1.316c0-0.094-0.003-0.165-0.008-0.211C9.509,5.382,9.782,5.098,10,4.766L10,4.766z M12,3.25v7.5
	c0,0.62-0.221,1.15-0.66,1.59C10.9,12.78,10.37,13,9.75,13h-7.5c-0.62,0-1.15-0.22-1.59-0.66C0.22,11.9,0,11.37,0,10.75v-7.5
	C0,2.63,0.22,2.1,0.66,1.66C1.1,1.22,1.63,1,2.25,1h7.5c0.62,0,1.15,0.22,1.59,0.66C11.779,2.1,12,2.63,12,3.25z"/>
</svg>
