<?xml version="1.0" encoding="utf-8"?>
<!-- Generator: Adobe Illustrator 16.0.0, SVG Export Plug-In . SVG Version: 6.00 Build 0)  -->
<!DOCTYPE svg PUBLIC "-//W3C//DTD SVG 1.1//EN" "http://www.w3.org/Graphics/SVG/1.1/DTD/svg11.dtd">
<svg version="1.1" id="Layer_1" xmlns="http://www.w3.org/2000/svg" xmlns:xlink="http://www.w3.org/1999/xlink" x="0px" y="0px"
	 width="24px" height="28px" viewBox="0 0 24 28" enable-background="new 0 0 24 28" xml:space="preserve">
<path fill="#666666" d="M20,9.532c-0.584,0.26-1.214,0.438-1.89,0.532c0.708-0.416,1.191-1.024,1.454-1.828
	c-0.679,0.396-1.377,0.662-2.097,0.796C16.834,8.344,16.038,8,15.08,8c-0.908,0-1.68,0.32-2.32,0.96
	c-0.64,0.64-0.96,1.414-0.96,2.32c0,0.302,0.026,0.552,0.078,0.75c-1.344-0.072-2.604-0.412-3.782-1.017
	c-1.176-0.604-2.176-1.412-3-2.422c-0.304,0.522-0.453,1.074-0.453,1.656c0,1.188,0.474,2.1,1.422,2.734
	c-0.49-0.011-1.011-0.146-1.563-0.406v0.032c0,0.781,0.26,1.476,0.782,2.086c0.521,0.609,1.162,0.985,1.922,1.132
	C6.904,15.908,6.638,15.95,6.41,15.95c-0.137,0-0.34-0.021-0.61-0.063c0.218,0.656,0.606,1.2,1.164,1.626
	c0.558,0.427,1.19,0.646,1.898,0.656c-1.208,0.938-2.568,1.406-4.078,1.406c-0.271,0-0.532-0.017-0.782-0.044
	c1.542,0.976,3.218,1.466,5.032,1.466c1.166,0,2.26-0.187,3.282-0.552c1.02-0.372,1.896-0.866,2.625-1.484
	c0.73-0.622,1.356-1.336,1.883-2.142c0.525-0.807,0.916-1.652,1.172-2.532c0.256-0.882,0.382-1.758,0.382-2.632
	c0-0.188-0.006-0.33-0.016-0.422C19.018,10.764,19.564,10.196,20,9.532L20,9.532z M24,6.5v15c0,1.24-0.441,2.3-1.32,3.18
	C21.8,25.56,20.74,26,19.5,26h-15c-1.24,0-2.3-0.44-3.18-1.32C0.439,23.8,0,22.74,0,21.5v-15c0-1.24,0.439-2.3,1.32-3.18
	C2.2,2.44,3.26,2,4.5,2h15c1.24,0,2.3,0.44,3.18,1.32C23.559,4.2,24,5.26,24,6.5z"/>
</svg>
