<?xml version="1.0" encoding="utf-8"?>
<!-- Generator: Adobe Illustrator 16.0.0, SVG Export Plug-In . SVG Version: 6.00 Build 0)  -->
<!DOCTYPE svg PUBLIC "-//W3C//DTD SVG 1.1//EN" "http://www.w3.org/Graphics/SVG/1.1/DTD/svg11.dtd">
<svg version="1.1" id="Layer_1" xmlns="http://www.w3.org/2000/svg" xmlns:xlink="http://www.w3.org/1999/xlink" x="0px" y="0px"
	 width="12px" height="14px" viewBox="0 0 12 14" enable-background="new 0 0 12 14" xml:space="preserve">
<path fill="#666666" d="M6.039,10.305v0.992c-0.005,1.521-0.021,2.314-0.047,2.383c-0.063,0.167-0.195,0.271-0.398,0.313
	c-0.282,0.047-0.754-0.053-1.418-0.297C3.512,13.45,3.089,13.219,2.906,13c-0.068-0.078-0.112-0.172-0.133-0.281
	c-0.005-0.063,0.005-0.13,0.031-0.203c0.021-0.052,0.109-0.174,0.266-0.367c0.157-0.191,0.628-0.755,1.414-1.688
	c0.005,0,0.162-0.182,0.469-0.547c0.078-0.099,0.181-0.162,0.309-0.191C5.39,9.694,5.519,9.703,5.649,9.75
	c0.125,0.052,0.222,0.128,0.293,0.227C6.013,10.076,6.045,10.186,6.039,10.305L6.039,10.305z M4.875,8.344
	C4.86,8.631,4.724,8.813,4.469,8.891L3.532,9.195C2.1,9.654,1.34,9.884,1.251,9.884c-0.182-0.011-0.323-0.104-0.422-0.28
	C0.766,9.473,0.722,9.277,0.696,9.018c-0.041-0.396-0.039-0.83,0.008-1.302C0.75,7.245,0.829,6.92,0.938,6.743
	c0.109-0.178,0.255-0.261,0.437-0.25c0.068,0,0.594,0.201,1.578,0.602c0.365,0.151,0.664,0.274,0.898,0.367l0.656,0.267
	c0.12,0.046,0.212,0.125,0.277,0.237C4.849,8.078,4.879,8.204,4.875,8.344L4.875,8.344z M11.328,10.664
	c-0.037,0.281-0.275,0.701-0.715,1.258c-0.44,0.558-0.793,0.889-1.059,0.992c-0.193,0.072-0.357,0.055-0.492-0.055
	c-0.073-0.053-0.553-0.8-1.438-2.242l-0.367-0.602c-0.072-0.109-0.103-0.229-0.09-0.359C7.18,9.525,7.23,9.406,7.318,9.297
	c0.183-0.224,0.398-0.291,0.648-0.203C7.973,9.1,8.282,9.203,8.896,9.406c1.058,0.344,1.688,0.551,1.892,0.621
	c0.203,0.07,0.325,0.123,0.366,0.16C11.301,10.302,11.358,10.461,11.328,10.664L11.328,10.664z M6.078,5.727
	C6.104,6.258,5.963,6.576,5.656,6.68C5.354,6.769,5.057,6.583,4.765,6.125L1.812,1.453C1.771,1.271,1.82,1.11,1.96,0.969
	C2.173,0.745,2.714,0.512,3.581,0.27s1.452-0.324,1.754-0.246c0.208,0.052,0.336,0.169,0.383,0.352
	C5.733,0.47,5.791,1.266,5.89,2.763C5.989,4.26,6.052,5.249,6.078,5.727L6.078,5.727z M11.25,6.57
	c0.016,0.204-0.053,0.357-0.203,0.461c-0.078,0.052-0.935,0.276-2.57,0.672c-0.348,0.078-0.586,0.138-0.711,0.18l0.008-0.016
	C7.654,7.898,7.534,7.889,7.415,7.836c-0.119-0.052-0.216-0.135-0.289-0.25c-0.155-0.245-0.155-0.471,0-0.68
	c0.005-0.005,0.2-0.271,0.586-0.797c0.651-0.891,1.042-1.422,1.172-1.594C9.014,4.343,9.103,4.241,9.15,4.21
	c0.146-0.099,0.314-0.104,0.508-0.016c0.25,0.12,0.57,0.468,0.961,1.043c0.391,0.576,0.602,1.012,0.633,1.309v0.023L11.25,6.57z"/>
</svg>
