<?xml version="1.0" encoding="utf-8"?>
<!-- Generator: Adobe Illustrator 16.0.0, SVG Export Plug-In . SVG Version: 6.00 Build 0)  -->
<!DOCTYPE svg PUBLIC "-//W3C//DTD SVG 1.1//EN" "http://www.w3.org/Graphics/SVG/1.1/DTD/svg11.dtd">
<svg version="1.1" id="Layer_1" xmlns="http://www.w3.org/2000/svg" xmlns:xlink="http://www.w3.org/1999/xlink" x="0px" y="0px"
	 width="24px" height="28px" viewBox="0 0 24 28" enable-background="new 0 0 24 28" xml:space="preserve">
<path fill="#666666" d="M12.065,19.662v1.699c-0.008,2.605-0.036,3.964-0.081,4.083c-0.108,0.286-0.334,0.465-0.682,0.536
	c-0.483,0.08-1.292-0.091-2.43-0.509c-1.137-0.421-1.862-0.817-2.175-1.192c-0.117-0.134-0.192-0.295-0.229-0.481
	c-0.008-0.108,0.009-0.223,0.053-0.348c0.037-0.09,0.188-0.299,0.456-0.629c0.27-0.327,1.077-1.293,2.422-2.892
	c0.009,0,0.278-0.313,0.804-0.938c0.134-0.17,0.31-0.277,0.529-0.326c0.22-0.051,0.44-0.035,0.663,0.045
	c0.214,0.09,0.381,0.22,0.502,0.389C12.02,19.27,12.075,19.459,12.065,19.662L12.065,19.662z M10.071,16.303
	c-0.026,0.491-0.259,0.803-0.696,0.938L7.77,17.76c-2.453,0.787-3.756,1.181-3.908,1.181c-0.313-0.019-0.554-0.179-0.723-0.479
	c-0.108-0.225-0.183-0.561-0.228-1.004c-0.07-0.678-0.067-1.422,0.014-2.23c0.079-0.807,0.214-1.364,0.4-1.667
	c0.187-0.305,0.437-0.447,0.749-0.428c0.116,0,1.017,0.344,2.704,1.031c0.625,0.259,1.138,0.47,1.538,0.628l1.124,0.458
	c0.206,0.079,0.363,0.214,0.475,0.405C10.026,15.848,10.077,16.063,10.071,16.303L10.071,16.303z M21.126,20.277
	c-0.063,0.48-0.472,1.2-1.225,2.155c-0.755,0.956-1.359,1.522-1.815,1.699c-0.33,0.123-0.61,0.095-0.842-0.095
	c-0.125-0.09-0.948-1.37-2.464-3.84l-0.629-1.031c-0.123-0.188-0.176-0.393-0.154-0.616c0.022-0.224,0.108-0.429,0.259-0.614
	c0.313-0.385,0.682-0.499,1.109-0.348c0.014,0.01,0.543,0.187,1.594,0.533c1.813,0.59,2.893,0.945,3.242,1.064
	c0.348,0.121,0.557,0.211,0.627,0.274C21.079,19.657,21.177,19.93,21.126,20.277L21.126,20.277z M12.132,11.819
	c0.044,0.909-0.197,1.455-0.723,1.633c-0.518,0.152-1.026-0.167-1.527-0.951L4.823,4.497c-0.07-0.312,0.013-0.588,0.253-0.829
	C5.441,3.284,6.368,2.885,7.854,2.47c1.485-0.415,2.488-0.555,3.005-0.421c0.356,0.089,0.575,0.29,0.656,0.603
	c0.026,0.162,0.125,1.525,0.295,4.09C11.979,9.307,12.086,11,12.132,11.819L12.132,11.819z M20.992,13.263
	c0.027,0.35-0.091,0.612-0.348,0.79c-0.134,0.089-1.602,0.474-4.402,1.152c-0.598,0.133-1.004,0.235-1.219,0.308l0.014-0.026
	c-0.205,0.053-0.41,0.037-0.615-0.055c-0.203-0.088-0.369-0.23-0.495-0.428c-0.266-0.42-0.266-0.807,0-1.165
	c0.009-0.009,0.343-0.464,1.004-1.365c1.116-1.527,1.785-2.436,2.008-2.73c0.224-0.295,0.376-0.469,0.456-0.523
	c0.25-0.17,0.537-0.178,0.871-0.027c0.428,0.206,0.976,0.802,1.646,1.787c0.67,0.987,1.031,1.734,1.084,2.243v0.039L20.992,13.263z"
	/>
</svg>
