<?xml version="1.0" encoding="utf-8"?>
<!-- Generator: Adobe Illustrator 16.0.0, SVG Export Plug-In . SVG Version: 6.00 Build 0)  -->
<!DOCTYPE svg PUBLIC "-//W3C//DTD SVG 1.1//EN" "http://www.w3.org/Graphics/SVG/1.1/DTD/svg11.dtd">
<svg version="1.1" id="Layer_1" xmlns="http://www.w3.org/2000/svg" xmlns:xlink="http://www.w3.org/1999/xlink" x="0px" y="0px"
	 width="12px" height="14px" viewBox="0 0 12 14" enable-background="new 0 0 12 14" xml:space="preserve">
<path fill="#666666" d="M7.18,10.18V8.953c0-0.261-0.075-0.391-0.227-0.391c-0.089,0-0.175,0.041-0.258,0.125v1.75
	c0.083,0.083,0.169,0.125,0.258,0.125C7.104,10.563,7.18,10.435,7.18,10.18L7.18,10.18z M8.617,9.227h0.516V8.961
	c0-0.266-0.086-0.398-0.258-0.398S8.617,8.695,8.617,8.961V9.227z M4.156,7.148v0.547H3.531V11H2.953V7.695H2.344V7.148H4.156z
	 M5.727,8.133V11H5.204v-0.313C5,10.923,4.803,11.04,4.61,11.04c-0.172,0-0.281-0.073-0.328-0.22
	c-0.032-0.082-0.047-0.223-0.047-0.422V8.133h0.516v2.109c0,0.125,0.003,0.192,0.008,0.203c0.005,0.078,0.044,0.117,0.117,0.117
	c0.104,0,0.213-0.081,0.328-0.242V8.132L5.727,8.133L5.727,8.133z M7.695,9v1.141c0,0.271-0.019,0.461-0.055,0.57
	c-0.063,0.219-0.201,0.328-0.414,0.328c-0.183,0-0.359-0.107-0.531-0.32V11H6.172V7.148h0.523v1.258
	c0.166-0.208,0.344-0.313,0.531-0.313c0.213,0,0.351,0.109,0.414,0.328C7.677,8.531,7.695,8.725,7.695,9z M9.656,10.008v0.07
	c0,0.151-0.006,0.264-0.016,0.336c-0.016,0.115-0.055,0.219-0.117,0.313c-0.141,0.207-0.35,0.312-0.625,0.312
	c-0.271,0-0.482-0.099-0.633-0.297c-0.109-0.141-0.164-0.364-0.164-0.673V9.061c0-0.307,0.051-0.531,0.155-0.672
	c0.151-0.197,0.36-0.297,0.625-0.297c0.266,0,0.468,0.1,0.609,0.297C9.6,8.535,9.654,8.759,9.654,9.061v0.595H8.616v0.508
	c0,0.265,0.089,0.397,0.266,0.397c0.125,0,0.202-0.067,0.234-0.203c0-0.005,0.001-0.023,0.004-0.055s0.004-0.074,0.004-0.129v-0.168
	h0.53L9.656,10.008z M6.133,3.57v1.219c0,0.265-0.083,0.398-0.25,0.398c-0.167,0-0.25-0.133-0.25-0.398V3.57
	c0-0.271,0.083-0.406,0.25-0.406C6.05,3.164,6.133,3.299,6.133,3.57z M10.297,9.141c0-0.922-0.049-1.599-0.148-2.031
	c-0.051-0.229-0.164-0.42-0.336-0.574s-0.369-0.244-0.594-0.27C8.512,6.188,7.438,6.149,6,6.149c-1.432,0-2.502,0.039-3.211,0.117
	C2.56,6.292,2.36,6.382,2.191,6.536C2.021,6.69,1.911,6.881,1.859,7.11C1.755,7.563,1.703,8.24,1.703,9.141
	c0,0.917,0.052,1.594,0.156,2.031c0.052,0.225,0.163,0.414,0.332,0.57s0.366,0.247,0.59,0.273C3.494,12.093,4.567,12.132,6,12.132
	s2.506-0.039,3.219-0.116c0.225-0.026,0.421-0.117,0.59-0.273c0.17-0.156,0.28-0.346,0.332-0.57
	C10.245,10.734,10.297,10.058,10.297,9.141z M4.398,4.055l0.703-2.313H4.515L4.117,3.265L3.703,1.742H3.094l0.187,0.539
	c0,0,0.06,0.18,0.18,0.539C3.643,3.356,3.763,3.768,3.82,4.054v1.57h0.578V4.055L4.398,4.055z M6.656,4.687V3.671
	c0-0.302-0.055-0.528-0.164-0.68C6.341,2.793,6.138,2.694,5.883,2.694c-0.265,0-0.468,0.099-0.609,0.297
	C5.165,3.143,5.11,3.369,5.11,3.671v1.016c0,0.302,0.055,0.529,0.164,0.68c0.141,0.198,0.344,0.297,0.609,0.297
	c0.255,0,0.458-0.099,0.609-0.297C6.602,5.227,6.656,5,6.656,4.687z M8.07,5.625h0.522V2.734H8.07v2.211
	C7.955,5.106,7.846,5.187,7.742,5.187c-0.078,0-0.119-0.042-0.125-0.125C7.611,5.051,7.609,4.983,7.609,4.859V2.734H7.086v2.289
	c0,0.193,0.016,0.336,0.047,0.43c0.058,0.141,0.17,0.211,0.336,0.211c0.188,0,0.389-0.117,0.602-0.352V5.625L8.07,5.625z M12,3.25
	v7.5c0,0.62-0.221,1.15-0.66,1.59C10.9,12.78,10.37,13,9.75,13h-7.5c-0.62,0-1.15-0.22-1.59-0.66C0.22,11.9,0,11.37,0,10.75v-7.5
	C0,2.63,0.22,2.1,0.66,1.66C1.1,1.22,1.63,1,2.25,1h7.5c0.62,0,1.15,0.22,1.59,0.66C11.779,2.1,12,2.63,12,3.25z"/>
</svg>
