<?xml version="1.0" encoding="utf-8"?>
<!-- Generator: Adobe Illustrator 16.0.0, SVG Export Plug-In . SVG Version: 6.00 Build 0)  -->
<!DOCTYPE svg PUBLIC "-//W3C//DTD SVG 1.1//EN" "http://www.w3.org/Graphics/SVG/1.1/DTD/svg11.dtd">
<svg version="1.1" id="Layer_1" xmlns="http://www.w3.org/2000/svg" xmlns:xlink="http://www.w3.org/1999/xlink" x="0px" y="0px"
	 width="24px" height="28px" viewBox="0 0 24 28" enable-background="new 0 0 24 28" xml:space="preserve">
<path fill="#666666" d="M14.36,20.36v-2.454c0-0.522-0.15-0.782-0.454-0.782c-0.178,0-0.351,0.082-0.517,0.25v3.5
	c0.166,0.166,0.339,0.25,0.517,0.25C14.208,21.126,14.36,20.87,14.36,20.36L14.36,20.36z M17.234,18.454h1.031v-0.532
	c0-0.532-0.172-0.796-0.516-0.796s-0.516,0.264-0.516,0.796V18.454z M8.313,14.296v1.094h-1.25V22H5.906v-6.61H4.688v-1.094H8.313z
	 M11.454,16.266V22h-1.046v-0.626C10,21.846,9.605,22.08,9.22,22.08c-0.344,0-0.562-0.146-0.655-0.44
	C8.5,21.476,8.47,21.194,8.47,20.796v-4.53h1.032v4.219c0,0.25,0.006,0.384,0.016,0.405c0.011,0.156,0.088,0.234,0.234,0.234
	c0.208,0,0.426-0.162,0.656-0.484v-4.376L11.454,16.266L11.454,16.266z M15.39,18v2.282c0,0.542-0.038,0.922-0.109,1.14
	c-0.126,0.438-0.402,0.656-0.828,0.656c-0.366,0-0.718-0.214-1.063-0.64V22h-1.046v-7.704h1.046v2.516
	c0.332-0.416,0.688-0.626,1.063-0.626c0.426,0,0.702,0.219,0.828,0.656C15.354,17.062,15.39,17.45,15.39,18z M19.313,20.016v0.141
	c0,0.302-0.013,0.527-0.032,0.672c-0.032,0.229-0.11,0.438-0.234,0.626c-0.282,0.414-0.7,0.624-1.25,0.624
	c-0.542,0-0.964-0.198-1.266-0.594c-0.218-0.282-0.328-0.729-0.328-1.347v-2.016c0-0.614,0.102-1.063,0.31-1.344
	c0.303-0.395,0.721-0.595,1.25-0.595c0.532,0,0.937,0.2,1.219,0.595c0.22,0.292,0.328,0.739,0.328,1.344v1.189h-2.076v1.017
	c0,0.53,0.178,0.794,0.531,0.794c0.25,0,0.404-0.134,0.469-0.406c0-0.01,0.002-0.046,0.008-0.109
	c0.006-0.064,0.008-0.148,0.008-0.259v-0.336h1.061L19.313,20.016z M12.266,7.14v2.438c0,0.53-0.166,0.796-0.5,0.796
	s-0.5-0.266-0.5-0.796V7.14c0-0.542,0.166-0.812,0.5-0.812S12.266,6.598,12.266,7.14z M20.594,18.282
	c0-1.844-0.098-3.198-0.296-4.063c-0.102-0.458-0.328-0.84-0.672-1.147c-0.344-0.309-0.738-0.488-1.188-0.54
	c-1.414-0.156-3.562-0.234-6.438-0.234c-2.864,0-5.004,0.078-6.422,0.234c-0.458,0.052-0.858,0.231-1.196,0.54
	c-0.34,0.308-0.56,0.689-0.664,1.147c-0.208,0.906-0.312,2.26-0.312,4.063c0,1.834,0.104,3.188,0.312,4.062
	c0.104,0.45,0.326,0.828,0.664,1.141c0.338,0.312,0.732,0.493,1.181,0.546c1.426,0.155,3.571,0.233,6.438,0.233
	s5.012-0.078,6.438-0.231c0.45-0.053,0.843-0.234,1.181-0.546c0.34-0.313,0.56-0.692,0.664-1.141
	C20.49,21.468,20.594,20.116,20.594,18.282z M8.796,8.11l1.406-4.626H9.03L8.234,6.53L7.406,3.484H6.188l0.375,1.077
	c0,0,0.119,0.36,0.359,1.078C7.286,6.712,7.525,7.536,7.64,8.108v3.14h1.156V8.11L8.796,8.11z M13.313,9.374V7.342
	c0-0.604-0.11-1.056-0.328-1.359c-0.303-0.396-0.709-0.595-1.219-0.595c-0.529,0-0.936,0.198-1.218,0.595
	C10.33,6.286,10.22,6.738,10.22,7.342v2.032c0,0.604,0.11,1.058,0.328,1.36c0.282,0.396,0.688,0.594,1.218,0.594
	c0.51,0,0.916-0.198,1.219-0.594C13.204,10.454,13.313,10,13.313,9.374z M16.14,11.25h1.044V5.468H16.14V9.89
	c-0.229,0.322-0.448,0.484-0.655,0.484c-0.156,0-0.238-0.084-0.25-0.25c-0.013-0.022-0.017-0.158-0.017-0.406v-4.25h-1.046v4.578
	c0,0.386,0.032,0.672,0.094,0.86c0.116,0.282,0.34,0.422,0.672,0.422c0.377,0,0.778-0.234,1.205-0.704v0.626H16.14z M24,6.5v15
	c0,1.24-0.441,2.3-1.32,3.18C21.8,25.56,20.74,26,19.5,26h-15c-1.24,0-2.3-0.44-3.18-1.32C0.439,23.8,0,22.74,0,21.5v-15
	c0-1.24,0.439-2.3,1.32-3.18C2.2,2.44,3.26,2,4.5,2h15c1.24,0,2.3,0.44,3.18,1.32C23.559,4.2,24,5.26,24,6.5z"/>
</svg>
